<svg xmlns="http://www.w3.org/2000/svg" xmlns:xlink="http://www.w3.org/1999/xlink" width="500" zoomAndPan="magnify" viewBox="0 0 375 374.999991" height="500" preserveAspectRatio="xMidYMid meet" version="1.0"><defs><g/><clipPath id="41497cf6f7"><path d="M 5 87 L 130 87 L 130 214 L 5 214 Z M 5 87 " clip-rule="nonzero"/></clipPath><clipPath id="5ee1ae2d93"><path d="M 69.582031 37.503906 L 176.058594 110.328125 L 87.570312 239.710938 L -18.910156 166.886719 Z M 69.582031 37.503906 " clip-rule="nonzero"/></clipPath><clipPath id="f5182389e9"><path d="M 69.582031 37.503906 L 176.058594 110.328125 L 87.570312 239.710938 L -18.910156 166.886719 Z M 69.582031 37.503906 " clip-rule="nonzero"/></clipPath><clipPath id="17eba21e01"><path d="M 69.582031 37.503906 L 176.058594 110.328125 L 87.570312 239.710938 L -18.910156 166.886719 Z M 69.582031 37.503906 " clip-rule="nonzero"/></clipPath><clipPath id="4a336d366a"><path d="M 17 97 L 132 97 L 132 212 L 17 212 Z M 17 97 " clip-rule="nonzero"/></clipPath><clipPath id="029be86c60"><path d="M 69.582031 37.503906 L 176.058594 110.328125 L 87.570312 239.710938 L -18.910156 166.886719 Z M 69.582031 37.503906 " clip-rule="nonzero"/></clipPath><clipPath id="fe96064338"><path d="M 69.582031 37.503906 L 176.058594 110.328125 L 87.570312 239.710938 L -18.910156 166.886719 Z M 69.582031 37.503906 " clip-rule="nonzero"/></clipPath><clipPath id="0d36d86e04"><path d="M 69.582031 37.503906 L 176.058594 110.328125 L 87.570312 239.710938 L -18.910156 166.886719 Z M 69.582031 37.503906 " clip-rule="nonzero"/></clipPath><clipPath id="9b18493e40"><path d="M 84 65 L 145 65 L 145 164 L 84 164 Z M 84 65 " clip-rule="nonzero"/></clipPath><clipPath id="62df2f77ef"><path d="M 69.582031 37.503906 L 176.058594 110.328125 L 87.570312 239.710938 L -18.910156 166.886719 Z M 69.582031 37.503906 " clip-rule="nonzero"/></clipPath><clipPath id="e6c387063d"><path d="M 69.582031 37.503906 L 176.058594 110.328125 L 87.570312 239.710938 L -18.910156 166.886719 Z M 69.582031 37.503906 " clip-rule="nonzero"/></clipPath><clipPath id="3b754d7325"><path d="M 69.582031 37.503906 L 176.058594 110.328125 L 87.570312 239.710938 L -18.910156 166.886719 Z M 69.582031 37.503906 " clip-rule="nonzero"/></clipPath><clipPath id="beff340257"><path d="M 37 126 L 97 126 L 97 188 L 37 188 Z M 37 126 " clip-rule="nonzero"/></clipPath><clipPath id="f25498a01b"><path d="M 69.582031 37.503906 L 176.058594 110.328125 L 87.570312 239.710938 L -18.910156 166.886719 Z M 69.582031 37.503906 " clip-rule="nonzero"/></clipPath><clipPath id="99358cef0a"><path d="M 69.582031 37.503906 L 176.058594 110.328125 L 87.570312 239.710938 L -18.910156 166.886719 Z M 69.582031 37.503906 " clip-rule="nonzero"/></clipPath><clipPath id="50192499a2"><path d="M 69.582031 37.503906 L 176.058594 110.328125 L 87.570312 239.710938 L -18.910156 166.886719 Z M 69.582031 37.503906 " clip-rule="nonzero"/></clipPath><clipPath id="57f1c07d37"><path d="M 93 147 L 104 147 L 104 173 L 93 173 Z M 93 147 " clip-rule="nonzero"/></clipPath><clipPath id="2e3e1a0947"><path d="M 69.582031 37.503906 L 176.058594 110.328125 L 87.570312 239.710938 L -18.910156 166.886719 Z M 69.582031 37.503906 " clip-rule="nonzero"/></clipPath><clipPath id="4c6342a520"><path d="M 69.582031 37.503906 L 176.058594 110.328125 L 87.570312 239.710938 L -18.910156 166.886719 Z M 69.582031 37.503906 " clip-rule="nonzero"/></clipPath><clipPath id="93a5f028b4"><path d="M 69.582031 37.503906 L 176.058594 110.328125 L 87.570312 239.710938 L -18.910156 166.886719 Z M 69.582031 37.503906 " clip-rule="nonzero"/></clipPath></defs><g fill="#80cc28" fill-opacity="1"><g transform="translate(159.683593, 146.008116)"><g><path d="M 19.984375 0.53125 C 16.273438 0.53125 13.085938 -0.179688 10.421875 -1.609375 C 7.753906 -3.046875 5.710938 -5.0625 4.296875 -7.65625 C 2.890625 -10.257812 2.1875 -13.304688 2.1875 -16.796875 C 2.1875 -20.285156 2.890625 -23.320312 4.296875 -25.90625 C 5.710938 -28.5 7.753906 -30.507812 10.421875 -31.9375 C 13.085938 -33.363281 16.273438 -34.078125 19.984375 -34.078125 C 21.441406 -34.078125 22.957031 -33.910156 24.53125 -33.578125 C 26.101562 -33.242188 27.492188 -32.742188 28.703125 -32.078125 C 29.585938 -31.597656 30.203125 -30.992188 30.546875 -30.265625 C 30.898438 -29.535156 31.03125 -28.789062 30.9375 -28.03125 C 30.84375 -27.269531 30.5625 -26.585938 30.09375 -25.984375 C 29.632812 -25.378906 29.054688 -24.972656 28.359375 -24.765625 C 27.660156 -24.566406 26.898438 -24.671875 26.078125 -25.078125 C 24.203125 -26.003906 22.285156 -26.46875 20.328125 -26.46875 C 17.367188 -26.46875 15.144531 -25.632812 13.65625 -23.96875 C 12.164062 -22.300781 11.421875 -19.910156 11.421875 -16.796875 C 11.421875 -13.660156 12.164062 -11.257812 13.65625 -9.59375 C 15.144531 -7.925781 17.367188 -7.09375 20.328125 -7.09375 C 21.148438 -7.09375 22.035156 -7.191406 22.984375 -7.390625 C 23.941406 -7.597656 24.878906 -7.925781 25.796875 -8.375 C 26.742188 -8.789062 27.585938 -8.898438 28.328125 -8.703125 C 29.078125 -8.515625 29.691406 -8.132812 30.171875 -7.5625 C 30.648438 -6.988281 30.941406 -6.328125 31.046875 -5.578125 C 31.160156 -4.835938 31.054688 -4.101562 30.734375 -3.375 C 30.421875 -2.644531 29.835938 -2.0625 28.984375 -1.625 C 27.867188 -0.957031 26.492188 -0.429688 24.859375 -0.046875 C 23.234375 0.335938 21.609375 0.53125 19.984375 0.53125 Z M 19.984375 0.53125 "/></g></g></g><g fill="#80cc28" fill-opacity="1"><g transform="translate(191.465502, 146.008116)"><g><path d="M 10.609375 0.53125 C 8.804688 0.53125 7.210938 0.195312 5.828125 -0.46875 C 4.453125 -1.132812 3.375 -2.046875 2.59375 -3.203125 C 1.8125 -4.367188 1.421875 -5.695312 1.421875 -7.1875 C 1.421875 -8.863281 1.863281 -10.203125 2.75 -11.203125 C 3.644531 -12.203125 5.078125 -12.914062 7.046875 -13.34375 C 9.015625 -13.78125 11.628906 -14 14.890625 -14 L 16.703125 -14 L 16.703125 -14.65625 C 16.703125 -15.800781 16.40625 -16.609375 15.8125 -17.078125 C 15.226562 -17.554688 14.222656 -17.796875 12.796875 -17.796875 C 12.003906 -17.796875 11.140625 -17.707031 10.203125 -17.53125 C 9.273438 -17.363281 8.222656 -17.054688 7.046875 -16.609375 C 5.992188 -16.234375 5.117188 -16.25 4.421875 -16.65625 C 3.722656 -17.070312 3.269531 -17.664062 3.0625 -18.4375 C 2.863281 -19.21875 2.945312 -19.992188 3.3125 -20.765625 C 3.675781 -21.546875 4.378906 -22.128906 5.421875 -22.515625 C 6.941406 -23.054688 8.34375 -23.425781 9.625 -23.625 C 10.914062 -23.832031 12.101562 -23.9375 13.1875 -23.9375 C 17.082031 -23.9375 19.972656 -23.09375 21.859375 -21.40625 C 23.753906 -19.726562 24.703125 -17.082031 24.703125 -13.46875 L 24.703125 -3.859375 C 24.703125 -1.003906 23.398438 0.421875 20.796875 0.421875 C 18.328125 0.421875 17.007812 -0.84375 16.84375 -3.375 C 16.40625 -2.175781 15.644531 -1.222656 14.5625 -0.515625 C 13.488281 0.179688 12.171875 0.53125 10.609375 0.53125 Z M 12.515625 -5 C 13.691406 -5 14.679688 -5.378906 15.484375 -6.140625 C 16.296875 -6.898438 16.703125 -7.898438 16.703125 -9.140625 L 16.703125 -10 L 14.890625 -10 C 13.023438 -10 11.65625 -9.800781 10.78125 -9.40625 C 9.90625 -9.007812 9.46875 -8.378906 9.46875 -7.515625 C 9.46875 -6.785156 9.726562 -6.179688 10.25 -5.703125 C 10.78125 -5.234375 11.535156 -5 12.515625 -5 Z M 12.515625 -5 "/></g></g></g><g fill="#80cc28" fill-opacity="1"><g transform="translate(217.538045, 146.008116)"><g><path d="M 6.8125 0.421875 C 3.914062 0.421875 2.46875 -1.003906 2.46875 -3.859375 L 2.46875 -19.609375 C 2.46875 -22.429688 3.847656 -23.84375 6.609375 -23.84375 C 7.910156 -23.84375 8.914062 -23.476562 9.625 -22.75 C 10.34375 -22.019531 10.703125 -20.972656 10.703125 -19.609375 L 10.703125 -19.46875 C 11.242188 -20.832031 12.117188 -21.910156 13.328125 -22.703125 C 14.535156 -23.492188 15.960938 -23.90625 17.609375 -23.9375 C 18.523438 -23.96875 19.210938 -23.738281 19.671875 -23.25 C 20.140625 -22.757812 20.390625 -21.847656 20.421875 -20.515625 C 20.421875 -19.367188 20.179688 -18.460938 19.703125 -17.796875 C 19.222656 -17.128906 18.316406 -16.734375 16.984375 -16.609375 L 15.890625 -16.515625 C 14.210938 -16.359375 12.992188 -15.890625 12.234375 -15.109375 C 11.472656 -14.328125 11.09375 -13.175781 11.09375 -11.65625 L 11.09375 -3.859375 C 11.09375 -1.003906 9.664062 0.421875 6.8125 0.421875 Z M 6.8125 0.421875 "/></g></g></g><g fill="#80cc28" fill-opacity="1"><g transform="translate(237.235117, 146.008116)"><g><path d="M 6.8125 0.421875 C 3.914062 0.421875 2.46875 -1.003906 2.46875 -3.859375 L 2.46875 -19.609375 C 2.46875 -22.429688 3.847656 -23.84375 6.609375 -23.84375 C 7.910156 -23.84375 8.914062 -23.476562 9.625 -22.75 C 10.34375 -22.019531 10.703125 -20.972656 10.703125 -19.609375 L 10.703125 -19.46875 C 11.242188 -20.832031 12.117188 -21.910156 13.328125 -22.703125 C 14.535156 -23.492188 15.960938 -23.90625 17.609375 -23.9375 C 18.523438 -23.96875 19.210938 -23.738281 19.671875 -23.25 C 20.140625 -22.757812 20.390625 -21.847656 20.421875 -20.515625 C 20.421875 -19.367188 20.179688 -18.460938 19.703125 -17.796875 C 19.222656 -17.128906 18.316406 -16.734375 16.984375 -16.609375 L 15.890625 -16.515625 C 14.210938 -16.359375 12.992188 -15.890625 12.234375 -15.109375 C 11.472656 -14.328125 11.09375 -13.175781 11.09375 -11.65625 L 11.09375 -3.859375 C 11.09375 -1.003906 9.664062 0.421875 6.8125 0.421875 Z M 6.8125 0.421875 "/></g></g></g><g fill="#80cc28" fill-opacity="1"><g transform="translate(256.932194, 146.008116)"><g><path d="M 6.65625 -27.21875 C 5.164062 -27.21875 4.015625 -27.566406 3.203125 -28.265625 C 2.398438 -28.960938 2 -29.976562 2 -31.3125 C 2 -32.613281 2.398438 -33.613281 3.203125 -34.3125 C 4.015625 -35.007812 5.164062 -35.359375 6.65625 -35.359375 C 9.800781 -35.359375 11.375 -34.007812 11.375 -31.3125 C 11.375 -29.976562 10.96875 -28.960938 10.15625 -28.265625 C 9.351562 -27.566406 8.1875 -27.21875 6.65625 -27.21875 Z M 6.65625 0.421875 C 5.289062 0.421875 4.25 0.0234375 3.53125 -0.765625 C 2.820312 -1.554688 2.46875 -2.695312 2.46875 -4.1875 L 2.46875 -19.234375 C 2.46875 -20.722656 2.820312 -21.863281 3.53125 -22.65625 C 4.25 -23.445312 5.289062 -23.84375 6.65625 -23.84375 C 8.019531 -23.84375 9.078125 -23.445312 9.828125 -22.65625 C 10.578125 -21.863281 10.953125 -20.722656 10.953125 -19.234375 L 10.953125 -4.1875 C 10.953125 -2.695312 10.582031 -1.554688 9.84375 -0.765625 C 9.113281 0.0234375 8.050781 0.421875 6.65625 0.421875 Z M 6.65625 0.421875 "/></g></g></g><g fill="#80cc28" fill-opacity="1"><g transform="translate(269.349823, 146.008116)"><g><path d="M 6.65625 0.421875 C 5.289062 0.421875 4.25 0.0546875 3.53125 -0.671875 C 2.820312 -1.398438 2.46875 -2.460938 2.46875 -3.859375 L 2.46875 -19.609375 C 2.46875 -22.429688 3.847656 -23.84375 6.609375 -23.84375 C 9.117188 -23.84375 10.484375 -22.625 10.703125 -20.1875 C 11.503906 -21.382812 12.5625 -22.304688 13.875 -22.953125 C 15.1875 -23.609375 16.65625 -23.9375 18.28125 -23.9375 C 21.070312 -23.9375 23.140625 -23.109375 24.484375 -21.453125 C 25.835938 -19.804688 26.515625 -17.269531 26.515625 -13.84375 L 26.515625 -3.859375 C 26.515625 -2.460938 26.148438 -1.398438 25.421875 -0.671875 C 24.691406 0.0546875 23.644531 0.421875 22.28125 0.421875 C 20.914062 0.421875 19.863281 0.0546875 19.125 -0.671875 C 18.394531 -1.398438 18.03125 -2.460938 18.03125 -3.859375 L 18.03125 -13.515625 C 18.03125 -14.941406 17.785156 -15.957031 17.296875 -16.5625 C 16.804688 -17.164062 16.085938 -17.46875 15.140625 -17.46875 C 13.867188 -17.46875 12.851562 -17.0625 12.09375 -16.25 C 11.332031 -15.445312 10.953125 -14.363281 10.953125 -13 L 10.953125 -3.859375 C 10.953125 -1.003906 9.519531 0.421875 6.65625 0.421875 Z M 6.65625 0.421875 "/></g></g></g><g fill="#80cc28" fill-opacity="1"><g transform="translate(297.230329, 146.008116)"><g><path d="M 14.09375 9.09375 C 10.5 9.09375 7.546875 8.628906 5.234375 7.703125 C 4.085938 7.296875 3.347656 6.695312 3.015625 5.90625 C 2.679688 5.113281 2.640625 4.3125 2.890625 3.5 C 3.148438 2.6875 3.601562 2.066406 4.25 1.640625 C 4.90625 1.210938 5.675781 1.15625 6.5625 1.46875 C 7.957031 2.039062 9.21875 2.414062 10.34375 2.59375 C 11.476562 2.769531 12.457031 2.859375 13.28125 2.859375 C 15.21875 2.859375 16.664062 2.453125 17.625 1.640625 C 18.59375 0.828125 19.078125 -0.429688 19.078125 -2.140625 L 19.078125 -4.328125 C 18.410156 -3.191406 17.410156 -2.289062 16.078125 -1.625 C 14.753906 -0.957031 13.328125 -0.625 11.796875 -0.625 C 9.703125 -0.625 7.878906 -1.101562 6.328125 -2.0625 C 4.773438 -3.03125 3.5625 -4.382812 2.6875 -6.125 C 1.8125 -7.875 1.375 -9.925781 1.375 -12.28125 C 1.375 -14.625 1.8125 -16.664062 2.6875 -18.40625 C 3.5625 -20.15625 4.773438 -21.515625 6.328125 -22.484375 C 7.878906 -23.453125 9.703125 -23.9375 11.796875 -23.9375 C 13.359375 -23.9375 14.796875 -23.609375 16.109375 -22.953125 C 17.421875 -22.304688 18.378906 -21.429688 18.984375 -20.328125 C 19.273438 -22.671875 20.671875 -23.84375 23.171875 -23.84375 C 25.929688 -23.84375 27.3125 -22.429688 27.3125 -19.609375 L 27.3125 -3.140625 C 27.3125 0.953125 26.171875 4.015625 23.890625 6.046875 C 21.609375 8.078125 18.34375 9.09375 14.09375 9.09375 Z M 14.421875 -6.859375 C 15.816406 -6.859375 16.925781 -7.332031 17.75 -8.28125 C 18.570312 -9.226562 18.984375 -10.5625 18.984375 -12.28125 C 18.984375 -13.988281 18.570312 -15.316406 17.75 -16.265625 C 16.925781 -17.222656 15.816406 -17.703125 14.421875 -17.703125 C 13.054688 -17.703125 11.960938 -17.222656 11.140625 -16.265625 C 10.316406 -15.316406 9.90625 -13.988281 9.90625 -12.28125 C 9.90625 -10.5625 10.316406 -9.226562 11.140625 -8.28125 C 11.960938 -7.332031 13.054688 -6.859375 14.421875 -6.859375 Z M 14.421875 -6.859375 "/></g></g></g><g fill="#2678d1" fill-opacity="1"><g transform="translate(137.800176, 177.361277)"><g><path d="M 5.34375 0.34375 C 4.257812 0.34375 3.4375 0.0546875 2.875 -0.515625 C 2.3125 -1.097656 2.03125 -1.941406 2.03125 -3.046875 L 2.03125 -15.484375 C 2.03125 -17.710938 3.117188 -18.828125 5.296875 -18.828125 C 7.273438 -18.828125 8.351562 -17.878906 8.53125 -15.984375 C 9.082031 -16.878906 9.835938 -17.585938 10.796875 -18.109375 C 11.765625 -18.640625 12.890625 -18.90625 14.171875 -18.90625 C 15.421875 -18.90625 16.503906 -18.628906 17.421875 -18.078125 C 18.335938 -17.523438 19.035156 -16.675781 19.515625 -15.53125 C 20.140625 -16.601562 20.988281 -17.429688 22.0625 -18.015625 C 23.144531 -18.609375 24.335938 -18.90625 25.640625 -18.90625 C 27.796875 -18.90625 29.394531 -18.257812 30.4375 -16.96875 C 31.476562 -15.675781 32 -13.664062 32 -10.9375 L 32 -3.046875 C 32 -1.941406 31.703125 -1.097656 31.109375 -0.515625 C 30.515625 0.0546875 29.679688 0.34375 28.609375 0.34375 C 27.554688 0.34375 26.738281 0.0546875 26.15625 -0.515625 C 25.582031 -1.097656 25.296875 -1.941406 25.296875 -3.046875 L 25.296875 -10.75 C 25.296875 -11.832031 25.132812 -12.609375 24.8125 -13.078125 C 24.488281 -13.554688 23.953125 -13.796875 23.203125 -13.796875 C 22.265625 -13.796875 21.550781 -13.46875 21.0625 -12.8125 C 20.582031 -12.164062 20.34375 -11.238281 20.34375 -10.03125 L 20.34375 -3.046875 C 20.34375 -1.941406 20.050781 -1.097656 19.46875 -0.515625 C 18.894531 0.0546875 18.070312 0.34375 17 0.34375 C 15.914062 0.34375 15.082031 0.0546875 14.5 -0.515625 C 13.925781 -1.097656 13.640625 -1.941406 13.640625 -3.046875 L 13.640625 -10.75 C 13.640625 -11.832031 13.476562 -12.609375 13.15625 -13.078125 C 12.832031 -13.554688 12.296875 -13.796875 11.546875 -13.796875 C 10.640625 -13.796875 9.941406 -13.46875 9.453125 -12.8125 C 8.960938 -12.164062 8.71875 -11.238281 8.71875 -10.03125 L 8.71875 -3.046875 C 8.71875 -0.785156 7.59375 0.34375 5.34375 0.34375 Z M 5.34375 0.34375 "/></g></g></g><g fill="#2678d1" fill-opacity="1"><g transform="translate(170.947351, 177.361277)"><g><path d="M 8.390625 0.40625 C 6.953125 0.40625 5.6875 0.144531 4.59375 -0.375 C 3.507812 -0.90625 2.660156 -1.625 2.046875 -2.53125 C 1.429688 -3.445312 1.125 -4.492188 1.125 -5.671875 C 1.125 -7.003906 1.472656 -8.0625 2.171875 -8.84375 C 2.878906 -9.632812 4.007812 -10.195312 5.5625 -10.53125 C 7.113281 -10.875 9.179688 -11.046875 11.765625 -11.046875 L 13.203125 -11.046875 L 13.203125 -11.578125 C 13.203125 -12.484375 12.96875 -13.125 12.5 -13.5 C 12.03125 -13.875 11.234375 -14.0625 10.109375 -14.0625 C 9.484375 -14.0625 8.800781 -13.988281 8.0625 -13.84375 C 7.320312 -13.707031 6.488281 -13.46875 5.5625 -13.125 C 4.738281 -12.820312 4.050781 -12.832031 3.5 -13.15625 C 2.945312 -13.476562 2.585938 -13.945312 2.421875 -14.5625 C 2.265625 -15.175781 2.328125 -15.789062 2.609375 -16.40625 C 2.898438 -17.019531 3.457031 -17.476562 4.28125 -17.78125 C 5.488281 -18.207031 6.597656 -18.5 7.609375 -18.65625 C 8.628906 -18.820312 9.5625 -18.90625 10.40625 -18.90625 C 13.488281 -18.90625 15.773438 -18.238281 17.265625 -16.90625 C 18.765625 -15.582031 19.515625 -13.492188 19.515625 -10.640625 L 19.515625 -3.046875 C 19.515625 -0.785156 18.484375 0.34375 16.421875 0.34375 C 14.472656 0.34375 13.4375 -0.660156 13.3125 -2.671875 C 12.957031 -1.710938 12.351562 -0.957031 11.5 -0.40625 C 10.644531 0.132812 9.609375 0.40625 8.390625 0.40625 Z M 9.890625 -3.953125 C 10.816406 -3.953125 11.597656 -4.25 12.234375 -4.84375 C 12.878906 -5.445312 13.203125 -6.238281 13.203125 -7.21875 L 13.203125 -7.890625 L 11.765625 -7.890625 C 10.285156 -7.890625 9.203125 -7.734375 8.515625 -7.421875 C 7.828125 -7.109375 7.484375 -6.613281 7.484375 -5.9375 C 7.484375 -5.363281 7.6875 -4.890625 8.09375 -4.515625 C 8.507812 -4.140625 9.109375 -3.953125 9.890625 -3.953125 Z M 9.890625 -3.953125 "/></g></g></g><g fill="#2678d1" fill-opacity="1"><g transform="translate(191.54212, 177.361277)"><g><path d="M 5.265625 0.34375 C 4.179688 0.34375 3.359375 0.0546875 2.796875 -0.515625 C 2.234375 -1.097656 1.953125 -1.941406 1.953125 -3.046875 L 1.953125 -15.484375 C 1.953125 -17.710938 3.039062 -18.828125 5.21875 -18.828125 C 7.207031 -18.828125 8.285156 -17.863281 8.453125 -15.9375 C 9.085938 -16.894531 9.921875 -17.628906 10.953125 -18.140625 C 11.992188 -18.648438 13.15625 -18.90625 14.4375 -18.90625 C 16.644531 -18.90625 18.28125 -18.253906 19.34375 -16.953125 C 20.40625 -15.648438 20.9375 -13.644531 20.9375 -10.9375 L 20.9375 -3.046875 C 20.9375 -1.941406 20.644531 -1.097656 20.0625 -0.515625 C 19.488281 0.0546875 18.664062 0.34375 17.59375 0.34375 C 16.519531 0.34375 15.691406 0.0546875 15.109375 -0.515625 C 14.535156 -1.097656 14.25 -1.941406 14.25 -3.046875 L 14.25 -10.671875 C 14.25 -11.804688 14.050781 -12.609375 13.65625 -13.078125 C 13.269531 -13.554688 12.703125 -13.796875 11.953125 -13.796875 C 10.953125 -13.796875 10.148438 -13.472656 9.546875 -12.828125 C 8.941406 -12.191406 8.640625 -11.335938 8.640625 -10.265625 L 8.640625 -3.046875 C 8.640625 -0.785156 7.515625 0.34375 5.265625 0.34375 Z M 5.265625 0.34375 "/></g></g></g><g fill="#2678d1" fill-opacity="1"><g transform="translate(213.565009, 177.361277)"><g><path d="M 8.390625 0.40625 C 6.953125 0.40625 5.6875 0.144531 4.59375 -0.375 C 3.507812 -0.90625 2.660156 -1.625 2.046875 -2.53125 C 1.429688 -3.445312 1.125 -4.492188 1.125 -5.671875 C 1.125 -7.003906 1.472656 -8.0625 2.171875 -8.84375 C 2.878906 -9.632812 4.007812 -10.195312 5.5625 -10.53125 C 7.113281 -10.875 9.179688 -11.046875 11.765625 -11.046875 L 13.203125 -11.046875 L 13.203125 -11.578125 C 13.203125 -12.484375 12.96875 -13.125 12.5 -13.5 C 12.03125 -13.875 11.234375 -14.0625 10.109375 -14.0625 C 9.484375 -14.0625 8.800781 -13.988281 8.0625 -13.84375 C 7.320312 -13.707031 6.488281 -13.46875 5.5625 -13.125 C 4.738281 -12.820312 4.050781 -12.832031 3.5 -13.15625 C 2.945312 -13.476562 2.585938 -13.945312 2.421875 -14.5625 C 2.265625 -15.175781 2.328125 -15.789062 2.609375 -16.40625 C 2.898438 -17.019531 3.457031 -17.476562 4.28125 -17.78125 C 5.488281 -18.207031 6.597656 -18.5 7.609375 -18.65625 C 8.628906 -18.820312 9.5625 -18.90625 10.40625 -18.90625 C 13.488281 -18.90625 15.773438 -18.238281 17.265625 -16.90625 C 18.765625 -15.582031 19.515625 -13.492188 19.515625 -10.640625 L 19.515625 -3.046875 C 19.515625 -0.785156 18.484375 0.34375 16.421875 0.34375 C 14.472656 0.34375 13.4375 -0.660156 13.3125 -2.671875 C 12.957031 -1.710938 12.351562 -0.957031 11.5 -0.40625 C 10.644531 0.132812 9.609375 0.40625 8.390625 0.40625 Z M 9.890625 -3.953125 C 10.816406 -3.953125 11.597656 -4.25 12.234375 -4.84375 C 12.878906 -5.445312 13.203125 -6.238281 13.203125 -7.21875 L 13.203125 -7.890625 L 11.765625 -7.890625 C 10.285156 -7.890625 9.203125 -7.734375 8.515625 -7.421875 C 7.828125 -7.109375 7.484375 -6.613281 7.484375 -5.9375 C 7.484375 -5.363281 7.6875 -4.890625 8.09375 -4.515625 C 8.507812 -4.140625 9.109375 -3.953125 9.890625 -3.953125 Z M 9.890625 -3.953125 "/></g></g></g><g fill="#2678d1" fill-opacity="1"><g transform="translate(234.159778, 177.361277)"><g><path d="M 11.125 7.1875 C 8.289062 7.1875 5.960938 6.820312 4.140625 6.09375 C 3.234375 5.757812 2.648438 5.28125 2.390625 4.65625 C 2.128906 4.03125 2.097656 3.394531 2.296875 2.75 C 2.492188 2.113281 2.847656 1.628906 3.359375 1.296875 C 3.878906 0.960938 4.488281 0.921875 5.1875 1.171875 C 6.289062 1.617188 7.285156 1.910156 8.171875 2.046875 C 9.066406 2.179688 9.835938 2.25 10.484375 2.25 C 12.015625 2.25 13.160156 1.929688 13.921875 1.296875 C 14.691406 0.660156 15.078125 -0.332031 15.078125 -1.6875 L 15.078125 -3.421875 C 14.546875 -2.515625 13.753906 -1.796875 12.703125 -1.265625 C 11.648438 -0.742188 10.523438 -0.484375 9.328125 -0.484375 C 7.671875 -0.484375 6.226562 -0.863281 5 -1.625 C 3.769531 -2.394531 2.8125 -3.46875 2.125 -4.84375 C 1.4375 -6.226562 1.09375 -7.847656 1.09375 -9.703125 C 1.09375 -11.554688 1.4375 -13.171875 2.125 -14.546875 C 2.8125 -15.921875 3.769531 -16.988281 5 -17.75 C 6.226562 -18.519531 7.671875 -18.90625 9.328125 -18.90625 C 10.554688 -18.90625 11.6875 -18.648438 12.71875 -18.140625 C 13.757812 -17.628906 14.519531 -16.929688 15 -16.046875 C 15.226562 -17.898438 16.332031 -18.828125 18.3125 -18.828125 C 20.488281 -18.828125 21.578125 -17.710938 21.578125 -15.484375 L 21.578125 -2.484375 C 21.578125 0.753906 20.675781 3.175781 18.875 4.78125 C 17.070312 6.382812 14.488281 7.1875 11.125 7.1875 Z M 11.390625 -5.40625 C 12.492188 -5.40625 13.367188 -5.78125 14.015625 -6.53125 C 14.671875 -7.289062 15 -8.347656 15 -9.703125 C 15 -11.054688 14.671875 -12.109375 14.015625 -12.859375 C 13.367188 -13.609375 12.492188 -13.984375 11.390625 -13.984375 C 10.316406 -13.984375 9.453125 -13.609375 8.796875 -12.859375 C 8.140625 -12.109375 7.8125 -11.054688 7.8125 -9.703125 C 7.8125 -8.347656 8.140625 -7.289062 8.796875 -6.53125 C 9.453125 -5.78125 10.316406 -5.40625 11.390625 -5.40625 Z M 11.390625 -5.40625 "/></g></g></g><g fill="#2678d1" fill-opacity="1"><g transform="translate(256.934308, 177.361277)"><g><path d="M 12.03125 0.40625 C 9.769531 0.40625 7.816406 0.015625 6.171875 -0.765625 C 4.535156 -1.554688 3.28125 -2.675781 2.40625 -4.125 C 1.53125 -5.582031 1.09375 -7.300781 1.09375 -9.28125 C 1.09375 -11.164062 1.507812 -12.832031 2.34375 -14.28125 C 3.1875 -15.738281 4.335938 -16.875 5.796875 -17.6875 C 7.265625 -18.5 8.941406 -18.90625 10.828125 -18.90625 C 12.679688 -18.90625 14.289062 -18.515625 15.65625 -17.734375 C 17.019531 -16.960938 18.070312 -15.851562 18.8125 -14.40625 C 19.550781 -12.96875 19.921875 -11.285156 19.921875 -9.359375 C 19.921875 -8.378906 19.347656 -7.890625 18.203125 -7.890625 L 7.484375 -7.890625 C 7.703125 -6.691406 8.203125 -5.828125 8.984375 -5.296875 C 9.765625 -4.773438 10.84375 -4.515625 12.21875 -4.515625 C 12.738281 -4.515625 13.363281 -4.578125 14.09375 -4.703125 C 14.820312 -4.828125 15.515625 -5.023438 16.171875 -5.296875 C 16.972656 -5.597656 17.644531 -5.601562 18.1875 -5.3125 C 18.738281 -5.03125 19.109375 -4.59375 19.296875 -4 C 19.492188 -3.414062 19.472656 -2.816406 19.234375 -2.203125 C 18.992188 -1.585938 18.519531 -1.117188 17.8125 -0.796875 C 16.9375 -0.367188 16.003906 -0.0625 15.015625 0.125 C 14.023438 0.3125 13.03125 0.40625 12.03125 0.40625 Z M 11.125 -14.59375 C 10.125 -14.59375 9.300781 -14.289062 8.65625 -13.6875 C 8.019531 -13.082031 7.613281 -12.203125 7.4375 -11.046875 L 14.4375 -11.046875 C 14.363281 -12.222656 14.039062 -13.109375 13.46875 -13.703125 C 12.90625 -14.296875 12.125 -14.59375 11.125 -14.59375 Z M 11.125 -14.59375 "/></g></g></g><g fill="#2678d1" fill-opacity="1"><g transform="translate(277.040524, 177.361277)"><g><path d="M 5.34375 0.34375 C 4.257812 0.34375 3.4375 0.0546875 2.875 -0.515625 C 2.3125 -1.097656 2.03125 -1.941406 2.03125 -3.046875 L 2.03125 -15.484375 C 2.03125 -17.710938 3.117188 -18.828125 5.296875 -18.828125 C 7.273438 -18.828125 8.351562 -17.878906 8.53125 -15.984375 C 9.082031 -16.878906 9.835938 -17.585938 10.796875 -18.109375 C 11.765625 -18.640625 12.890625 -18.90625 14.171875 -18.90625 C 15.421875 -18.90625 16.503906 -18.628906 17.421875 -18.078125 C 18.335938 -17.523438 19.035156 -16.675781 19.515625 -15.53125 C 20.140625 -16.601562 20.988281 -17.429688 22.0625 -18.015625 C 23.144531 -18.609375 24.335938 -18.90625 25.640625 -18.90625 C 27.796875 -18.90625 29.394531 -18.257812 30.4375 -16.96875 C 31.476562 -15.675781 32 -13.664062 32 -10.9375 L 32 -3.046875 C 32 -1.941406 31.703125 -1.097656 31.109375 -0.515625 C 30.515625 0.0546875 29.679688 0.34375 28.609375 0.34375 C 27.554688 0.34375 26.738281 0.0546875 26.15625 -0.515625 C 25.582031 -1.097656 25.296875 -1.941406 25.296875 -3.046875 L 25.296875 -10.75 C 25.296875 -11.832031 25.132812 -12.609375 24.8125 -13.078125 C 24.488281 -13.554688 23.953125 -13.796875 23.203125 -13.796875 C 22.265625 -13.796875 21.550781 -13.46875 21.0625 -12.8125 C 20.582031 -12.164062 20.34375 -11.238281 20.34375 -10.03125 L 20.34375 -3.046875 C 20.34375 -1.941406 20.050781 -1.097656 19.46875 -0.515625 C 18.894531 0.0546875 18.070312 0.34375 17 0.34375 C 15.914062 0.34375 15.082031 0.0546875 14.5 -0.515625 C 13.925781 -1.097656 13.640625 -1.941406 13.640625 -3.046875 L 13.640625 -10.75 C 13.640625 -11.832031 13.476562 -12.609375 13.15625 -13.078125 C 12.832031 -13.554688 12.296875 -13.796875 11.546875 -13.796875 C 10.640625 -13.796875 9.941406 -13.46875 9.453125 -12.8125 C 8.960938 -12.164062 8.71875 -11.238281 8.71875 -10.03125 L 8.71875 -3.046875 C 8.71875 -0.785156 7.59375 0.34375 5.34375 0.34375 Z M 5.34375 0.34375 "/></g></g></g><g fill="#2678d1" fill-opacity="1"><g transform="translate(310.187693, 177.361277)"><g><path d="M 12.03125 0.40625 C 9.769531 0.40625 7.816406 0.015625 6.171875 -0.765625 C 4.535156 -1.554688 3.28125 -2.675781 2.40625 -4.125 C 1.53125 -5.582031 1.09375 -7.300781 1.09375 -9.28125 C 1.09375 -11.164062 1.507812 -12.832031 2.34375 -14.28125 C 3.1875 -15.738281 4.335938 -16.875 5.796875 -17.6875 C 7.265625 -18.5 8.941406 -18.90625 10.828125 -18.90625 C 12.679688 -18.90625 14.289062 -18.515625 15.65625 -17.734375 C 17.019531 -16.960938 18.070312 -15.851562 18.8125 -14.40625 C 19.550781 -12.96875 19.921875 -11.285156 19.921875 -9.359375 C 19.921875 -8.378906 19.347656 -7.890625 18.203125 -7.890625 L 7.484375 -7.890625 C 7.703125 -6.691406 8.203125 -5.828125 8.984375 -5.296875 C 9.765625 -4.773438 10.84375 -4.515625 12.21875 -4.515625 C 12.738281 -4.515625 13.363281 -4.578125 14.09375 -4.703125 C 14.820312 -4.828125 15.515625 -5.023438 16.171875 -5.296875 C 16.972656 -5.597656 17.644531 -5.601562 18.1875 -5.3125 C 18.738281 -5.03125 19.109375 -4.59375 19.296875 -4 C 19.492188 -3.414062 19.472656 -2.816406 19.234375 -2.203125 C 18.992188 -1.585938 18.519531 -1.117188 17.8125 -0.796875 C 16.9375 -0.367188 16.003906 -0.0625 15.015625 0.125 C 14.023438 0.3125 13.03125 0.40625 12.03125 0.40625 Z M 11.125 -14.59375 C 10.125 -14.59375 9.300781 -14.289062 8.65625 -13.6875 C 8.019531 -13.082031 7.613281 -12.203125 7.4375 -11.046875 L 14.4375 -11.046875 C 14.363281 -12.222656 14.039062 -13.109375 13.46875 -13.703125 C 12.90625 -14.296875 12.125 -14.59375 11.125 -14.59375 Z M 11.125 -14.59375 "/></g></g></g><g fill="#2678d1" fill-opacity="1"><g transform="translate(330.293908, 177.361277)"><g><path d="M 5.265625 0.34375 C 4.179688 0.34375 3.359375 0.0546875 2.796875 -0.515625 C 2.234375 -1.097656 1.953125 -1.941406 1.953125 -3.046875 L 1.953125 -15.484375 C 1.953125 -17.710938 3.039062 -18.828125 5.21875 -18.828125 C 7.207031 -18.828125 8.285156 -17.863281 8.453125 -15.9375 C 9.085938 -16.894531 9.921875 -17.628906 10.953125 -18.140625 C 11.992188 -18.648438 13.15625 -18.90625 14.4375 -18.90625 C 16.644531 -18.90625 18.28125 -18.253906 19.34375 -16.953125 C 20.40625 -15.648438 20.9375 -13.644531 20.9375 -10.9375 L 20.9375 -3.046875 C 20.9375 -1.941406 20.644531 -1.097656 20.0625 -0.515625 C 19.488281 0.0546875 18.664062 0.34375 17.59375 0.34375 C 16.519531 0.34375 15.691406 0.0546875 15.109375 -0.515625 C 14.535156 -1.097656 14.25 -1.941406 14.25 -3.046875 L 14.25 -10.671875 C 14.25 -11.804688 14.050781 -12.609375 13.65625 -13.078125 C 13.269531 -13.554688 12.703125 -13.796875 11.953125 -13.796875 C 10.953125 -13.796875 10.148438 -13.472656 9.546875 -12.828125 C 8.941406 -12.191406 8.640625 -11.335938 8.640625 -10.265625 L 8.640625 -3.046875 C 8.640625 -0.785156 7.515625 0.34375 5.265625 0.34375 Z M 5.265625 0.34375 "/></g></g></g><g fill="#2678d1" fill-opacity="1"><g transform="translate(352.316802, 177.361277)"><g><path d="M 11.65625 0.40625 C 8.84375 0.40625 6.757812 -0.242188 5.40625 -1.546875 C 4.0625 -2.847656 3.390625 -4.8125 3.390625 -7.4375 L 3.390625 -13.578125 L 2.109375 -13.578125 C 0.429688 -13.578125 -0.40625 -14.398438 -0.40625 -16.046875 C -0.40625 -17.679688 0.429688 -18.5 2.109375 -18.5 L 3.390625 -18.5 L 3.390625 -20.828125 C 3.390625 -21.929688 3.675781 -22.769531 4.25 -23.34375 C 4.820312 -23.914062 5.648438 -24.203125 6.734375 -24.203125 C 8.960938 -24.203125 10.078125 -23.078125 10.078125 -20.828125 L 10.078125 -18.5 L 13.15625 -18.5 C 14.863281 -18.5 15.71875 -17.679688 15.71875 -16.046875 C 15.71875 -14.398438 14.863281 -13.578125 13.15625 -13.578125 L 10.078125 -13.578125 L 10.078125 -7.671875 C 10.078125 -5.867188 10.988281 -4.96875 12.8125 -4.96875 C 13.164062 -4.96875 13.503906 -5.003906 13.828125 -5.078125 C 14.160156 -5.148438 14.460938 -5.1875 14.734375 -5.1875 C 15.140625 -5.207031 15.46875 -5.085938 15.71875 -4.828125 C 15.96875 -4.566406 16.09375 -3.972656 16.09375 -3.046875 C 16.09375 -2.296875 15.976562 -1.660156 15.75 -1.140625 C 15.519531 -0.628906 15.117188 -0.257812 14.546875 -0.03125 C 14.191406 0.09375 13.710938 0.195312 13.109375 0.28125 C 12.515625 0.363281 12.03125 0.40625 11.65625 0.40625 Z M 11.65625 0.40625 "/></g></g></g><g clip-path="url(#41497cf6f7)"><g clip-path="url(#5ee1ae2d93)"><g clip-path="url(#f5182389e9)"><g clip-path="url(#17eba21e01)"><path fill="#80cc28" d="M 40.898438 202.734375 C 14.070312 184.382812 7.1875 147.769531 25.527344 120.957031 C 43.867188 94.140625 80.480469 87.28125 107.3125 105.628906 C 118.105469 113.011719 125.671875 123.351562 129.664062 134.816406 C 126 120.53125 117.332031 107.460938 104.199219 98.476562 C 75.476562 78.832031 36.277344 86.179688 16.648438 114.882812 C -2.984375 143.589844 4.382812 182.78125 33.105469 202.425781 C 46.238281 211.410156 61.5625 214.746094 76.207031 212.980469 C 64.070312 213.417969 51.695312 210.117188 40.898438 202.734375 " fill-opacity="1" fill-rule="nonzero"/></g></g></g></g><g clip-path="url(#4a336d366a)"><g clip-path="url(#029be86c60)"><g clip-path="url(#fe96064338)"><g clip-path="url(#0d36d86e04)"><path fill="#3871c1" d="M 115.582031 189.019531 C 94.132812 209.234375 60.339844 208.230469 40.109375 186.773438 C 19.875 165.316406 20.859375 131.535156 42.3125 111.316406 C 50.941406 103.183594 61.566406 98.484375 72.503906 97.171875 C 59.132812 97.648438 45.867188 102.792969 35.367188 112.6875 C 12.40625 134.332031 11.351562 170.496094 33.011719 193.464844 C 54.667969 216.433594 90.839844 217.507812 113.804688 195.867188 C 124.304688 185.972656 130.222656 173.039062 131.484375 159.714844 C 129.527344 170.554688 124.210938 180.886719 115.582031 189.019531 " fill-opacity="1" fill-rule="nonzero"/></g></g></g></g><g clip-path="url(#9b18493e40)"><g clip-path="url(#62df2f77ef)"><g clip-path="url(#e6c387063d)"><g clip-path="url(#3b754d7325)"><path fill="#80cc28" d="M 135.867188 142.5 L 136.101562 142.140625 C 136.410156 141.664062 136.726562 141.183594 137.035156 140.699219 C 137.339844 140.210938 137.621094 139.707031 137.917969 139.203125 C 138.0625 138.953125 138.210938 138.703125 138.355469 138.449219 C 138.492188 138.191406 138.625 137.929688 138.761719 137.667969 C 139.027344 137.148438 139.304688 136.628906 139.558594 136.097656 C 139.804688 135.558594 140.050781 135.015625 140.300781 134.476562 L 140.484375 134.066406 C 140.542969 133.929688 140.597656 133.789062 140.652344 133.652344 C 140.761719 133.375 140.875 133.09375 140.984375 132.816406 C 141.09375 132.539062 141.207031 132.257812 141.316406 131.976562 L 141.398438 131.769531 L 141.621094 131.125 C 141.8125 130.554688 142.011719 129.980469 142.203125 129.402344 C 142.371094 128.820312 142.539062 128.234375 142.707031 127.644531 L 142.835938 127.203125 C 142.875 127.058594 142.90625 126.90625 142.941406 126.757812 C 143.011719 126.460938 143.082031 126.164062 143.152344 125.863281 C 143.222656 125.5625 143.292969 125.265625 143.363281 124.964844 C 143.433594 124.667969 143.480469 124.359375 143.539062 124.058594 C 143.59375 123.753906 143.652344 123.453125 143.707031 123.148438 C 143.757812 122.84375 143.828125 122.542969 143.863281 122.234375 C 143.945312 121.621094 144.03125 121.007812 144.113281 120.390625 C 144.390625 117.921875 144.496094 115.421875 144.421875 112.917969 C 144.332031 110.414062 144.042969 107.917969 143.585938 105.453125 L 143.210938 103.613281 L 142.753906 101.792969 L 142.636719 101.339844 L 142.496094 100.894531 L 142.226562 100 L 141.953125 99.101562 L 141.636719 98.226562 L 141.324219 97.347656 L 141.164062 96.910156 C 141.109375 96.765625 141.046875 96.625 140.988281 96.480469 C 140.75 95.910156 140.515625 95.335938 140.277344 94.765625 C 139.75 93.648438 139.25 92.527344 138.648438 91.457031 C 138.359375 90.917969 138.078125 90.375 137.753906 89.859375 C 137.4375 89.339844 137.128906 88.8125 136.8125 88.300781 C 136.472656 87.796875 136.136719 87.296875 135.800781 86.796875 L 135.550781 86.421875 C 135.464844 86.296875 135.375 86.179688 135.285156 86.058594 C 135.105469 85.816406 134.925781 85.578125 134.75 85.339844 C 134.054688 84.363281 133.265625 83.472656 132.523438 82.558594 C 132.125 82.128906 131.730469 81.695312 131.335938 81.261719 C 131.136719 81.050781 130.945312 80.828125 130.742188 80.625 C 130.535156 80.417969 130.328125 80.214844 130.121094 80.011719 C 129.707031 79.609375 129.304688 79.195312 128.886719 78.808594 C 128.675781 78.613281 128.460938 78.421875 128.25 78.230469 C 128.039062 78.039062 127.828125 77.847656 127.613281 77.667969 C 126.75 76.925781 125.878906 76.21875 124.992188 75.554688 C 123.214844 74.222656 121.390625 73.042969 119.550781 72.015625 C 115.867188 69.960938 112.132812 68.523438 108.605469 67.585938 C 106.839844 67.117188 105.125 66.769531 103.480469 66.515625 C 101.839844 66.269531 100.269531 66.125 98.796875 66.042969 C 97.324219 65.960938 95.941406 65.976562 94.667969 66.007812 C 93.394531 66.0625 92.226562 66.140625 91.179688 66.261719 C 89.078125 66.496094 87.449219 66.804688 86.347656 67.039062 C 85.796875 67.152344 85.378906 67.265625 85.09375 67.328125 C 84.808594 67.394531 84.664062 67.429688 84.664062 67.429688 C 84.664062 67.429688 84.8125 67.402344 85.097656 67.351562 C 85.386719 67.300781 85.808594 67.214844 86.363281 67.128906 C 87.476562 66.949219 89.113281 66.726562 91.207031 66.601562 C 92.253906 66.535156 93.410156 66.519531 94.671875 66.53125 C 95.933594 66.566406 97.296875 66.617188 98.742188 66.777344 C 100.1875 66.929688 101.71875 67.152344 103.3125 67.476562 C 104.902344 67.808594 106.558594 68.234375 108.253906 68.78125 C 111.640625 69.871094 115.179688 71.449219 118.609375 73.605469 C 120.324219 74.683594 122.015625 75.902344 123.640625 77.261719 C 124.457031 77.9375 125.25 78.65625 126.03125 79.402344 C 126.230469 79.585938 126.421875 79.777344 126.613281 79.96875 C 126.804688 80.160156 126.996094 80.355469 127.1875 80.546875 C 127.566406 80.9375 127.925781 81.351562 128.300781 81.753906 C 128.484375 81.953125 128.671875 82.15625 128.855469 82.359375 C 129.039062 82.566406 129.210938 82.78125 129.386719 82.996094 C 129.738281 83.421875 130.089844 83.847656 130.445312 84.277344 C 131.101562 85.175781 131.800781 86.050781 132.402344 87 C 132.558594 87.234375 132.714844 87.46875 132.875 87.703125 C 132.949219 87.820312 133.03125 87.933594 133.105469 88.054688 L 133.320312 88.417969 C 133.613281 88.902344 133.902344 89.390625 134.195312 89.875 C 134.46875 90.375 134.730469 90.878906 135 91.378906 C 135.277344 91.875 135.511719 92.398438 135.757812 92.914062 C 136.265625 93.9375 136.675781 95.007812 137.109375 96.070312 C 137.304688 96.609375 137.496094 97.152344 137.6875 97.695312 C 137.738281 97.828125 137.785156 97.964844 137.832031 98.101562 L 137.957031 98.515625 L 138.207031 99.339844 L 138.457031 100.167969 L 138.664062 101.007812 L 138.875 101.84375 L 138.976562 102.265625 L 139.0625 102.6875 L 139.398438 104.382812 L 139.65625 106.09375 C 139.957031 108.375 140.101562 110.671875 140.066406 112.957031 C 140.015625 115.242188 139.800781 117.507812 139.4375 119.722656 C 139.332031 120.277344 139.230469 120.828125 139.125 121.375 C 139.078125 121.652344 139 121.921875 138.941406 122.195312 C 138.875 122.464844 138.808594 122.734375 138.746094 123.003906 C 138.679688 123.273438 138.621094 123.546875 138.546875 123.8125 C 138.46875 124.078125 138.390625 124.34375 138.3125 124.609375 C 138.238281 124.875 138.160156 125.140625 138.082031 125.402344 C 138.042969 125.535156 138.007812 125.667969 137.964844 125.796875 L 137.832031 126.1875 C 137.652344 126.703125 137.472656 127.222656 137.296875 127.738281 C 137.101562 128.246094 136.894531 128.746094 136.695312 129.25 L 136.472656 129.8125 L 136.386719 129.996094 C 136.273438 130.238281 136.164062 130.484375 136.050781 130.726562 C 135.941406 130.96875 135.828125 131.210938 135.71875 131.457031 C 135.660156 131.574219 135.609375 131.699219 135.550781 131.816406 L 135.367188 132.171875 C 135.121094 132.640625 134.878906 133.109375 134.636719 133.578125 C 134.386719 134.035156 134.109375 134.484375 133.851562 134.933594 C 133.722656 135.15625 133.589844 135.382812 133.460938 135.605469 C 133.316406 135.820312 133.175781 136.039062 133.035156 136.253906 C 132.75 136.683594 132.480469 137.117188 132.191406 137.535156 C 131.890625 137.945312 131.59375 138.355469 131.296875 138.761719 L 131.078125 139.066406 C 131.003906 139.167969 130.929688 139.269531 130.847656 139.363281 C 130.691406 139.558594 130.535156 139.753906 130.378906 139.945312 C 130.226562 140.136719 130.066406 140.332031 129.914062 140.523438 L 129.683594 140.808594 C 129.605469 140.90625 129.527344 141 129.445312 141.089844 C 129.117188 141.457031 128.792969 141.816406 128.472656 142.179688 C 128.308594 142.355469 128.15625 142.539062 127.984375 142.710938 C 127.816406 142.882812 127.648438 143.054688 127.480469 143.222656 C 127.148438 143.558594 126.8125 143.898438 126.484375 144.230469 C 126.140625 144.546875 125.796875 144.863281 125.457031 145.171875 C 125.285156 145.328125 125.121094 145.488281 124.949219 145.636719 C 124.773438 145.785156 124.597656 145.929688 124.425781 146.074219 C 124.074219 146.367188 123.738281 146.660156 123.390625 146.9375 C 123.035156 147.207031 122.6875 147.472656 122.339844 147.738281 C 122 148.011719 121.640625 148.253906 121.289062 148.5 C 120.9375 148.742188 120.597656 148.992188 120.246094 149.222656 C 117.445312 151.054688 114.695312 152.421875 112.179688 153.410156 C 109.664062 154.402344 107.386719 155.015625 105.496094 155.417969 C 105.261719 155.46875 105.03125 155.527344 104.804688 155.566406 C 104.582031 155.609375 104.363281 155.648438 104.152344 155.683594 C 103.996094 155.710938 103.84375 155.738281 103.695312 155.769531 C 104.113281 156.855469 104.304688 157.652344 104.347656 157.851562 C 104.917969 159.871094 104.960938 161.75 104.675781 163.464844 C 105.015625 163.390625 105.371094 163.300781 105.75 163.214844 C 105.996094 163.15625 106.25 163.097656 106.511719 163.039062 C 106.773438 162.976562 107.039062 162.894531 107.3125 162.820312 C 109.507812 162.230469 112.136719 161.371094 115.007812 160.0625 C 117.882812 158.757812 120.996094 157.003906 124.109375 154.71875 C 124.5 154.433594 124.882812 154.128906 125.269531 153.828125 C 125.660156 153.527344 126.054688 153.222656 126.429688 152.890625 C 126.8125 152.566406 127.195312 152.238281 127.585938 151.90625 C 127.96875 151.570312 128.339844 151.210938 128.71875 150.859375 C 128.910156 150.683594 129.097656 150.507812 129.289062 150.328125 C 129.476562 150.148438 129.660156 149.957031 129.84375 149.769531 C 130.210938 149.394531 130.582031 149.015625 130.957031 148.632812 C 131.3125 148.234375 131.671875 147.832031 132.03125 147.425781 C 132.214844 147.226562 132.394531 147.023438 132.574219 146.820312 C 132.753906 146.613281 132.921875 146.394531 133.097656 146.183594 C 133.441406 145.753906 133.789062 145.324219 134.136719 144.890625 C 134.226562 144.78125 134.308594 144.671875 134.390625 144.558594 L 134.636719 144.21875 C 134.800781 143.992188 134.964844 143.765625 135.132812 143.535156 C 135.296875 143.308594 135.460938 143.078125 135.628906 142.847656 C 135.710938 142.738281 135.792969 142.617188 135.867188 142.5 " fill-opacity="1" fill-rule="nonzero"/></g></g></g></g><g clip-path="url(#beff340257)"><g clip-path="url(#f25498a01b)"><g clip-path="url(#99358cef0a)"><g clip-path="url(#50192499a2)"><path fill="#51ade5" d="M 56.058594 141.839844 C 56.058594 141.839844 66.746094 151.273438 81.914062 150.136719 C 81.914062 150.136719 69.648438 155.085938 56.058594 141.839844 Z M 92.519531 147.46875 C 56.925781 152.152344 46.351562 126.78125 46.351562 126.78125 C 46.351562 126.78125 40.078125 141.328125 48.828125 147.3125 C 48.828125 147.3125 42.324219 144.824219 40.761719 137.34375 C 36.109375 149.625 37.980469 160.925781 41.339844 169.527344 C 41.339844 169.527344 45.8125 172.414062 48.539062 172.234375 C 48.539062 172.234375 45.492188 173.199219 42.871094 173.078125 C 45.554688 178.75 48.636719 182.859375 50.179688 184.742188 C 52.949219 185.066406 55.597656 184.785156 55.597656 184.785156 C 53.710938 185.910156 51.164062 185.886719 51.164062 185.886719 C 70.839844 192.644531 96.886719 173.34375 96.886719 173.34375 L 92.519531 147.46875 " fill-opacity="1" fill-rule="nonzero"/></g></g></g></g><g clip-path="url(#57f1c07d37)"><g clip-path="url(#2e3e1a0947)"><g clip-path="url(#4c6342a520)"><g clip-path="url(#93a5f028b4)"><path fill="#80cc28" d="M 99.703125 168.953125 C 99.703125 168.953125 101.820312 165.855469 102.804688 159.871094 C 102.804688 159.871094 103.609375 164.859375 99.703125 168.953125 Z M 103.300781 158.113281 C 103.300781 158.113281 101.433594 149.21875 93.640625 147.640625 L 97.847656 172.582031 C 100.097656 170.671875 105.351562 165.28125 103.300781 158.113281 " fill-opacity="1" fill-rule="nonzero"/></g></g></g></g></svg>