<svg xmlns="http://www.w3.org/2000/svg" xmlns:xlink="http://www.w3.org/1999/xlink" width="250" zoomAndPan="magnify" viewBox="0 0 187.5 74.999997" height="100" preserveAspectRatio="xMidYMid meet" version="1.0"><defs><filter x="0%" y="0%" width="100%" height="100%" id="1be80872b9"><feColorMatrix values="0 0 0 0 1 0 0 0 0 1 0 0 0 0 1 0 0 0 1 0" color-interpolation-filters="sRGB"/></filter><g/><clipPath id="195d94e023"><path d="M 27 13.179688 L 161 13.179688 L 161 54.429688 L 27 54.429688 Z M 27 13.179688 " clip-rule="nonzero"/></clipPath><clipPath id="601a8a4ca3"><path d="M 45.492188 50 L 179.742188 50 L 179.742188 73 L 45.492188 73 Z M 45.492188 50 " clip-rule="nonzero"/></clipPath><mask id="a57ae98273"><g filter="url(#1be80872b9)"><rect x="-18.75" width="225" fill="#000000" y="-7.5" height="89.999996" fill-opacity="0.9843"/></g></mask><clipPath id="408e0aa6ec"><path d="M 0.492188 0.125 L 134 0.125 L 134 22.867188 L 0.492188 22.867188 Z M 0.492188 0.125 " clip-rule="nonzero"/></clipPath><clipPath id="80de9849dc"><rect x="0" width="135" y="0" height="23"/></clipPath></defs><g clip-path="url(#195d94e023)"><path fill="#51ade5" d="M 159.46875 52.703125 C 156.570312 52.703125 153.671875 52.703125 150.773438 52.703125 C 143.613281 52.703125 136.449219 52.703125 129.285156 52.703125 C 120.160156 52.703125 111.03125 52.703125 101.902344 52.703125 C 93.109375 52.703125 84.316406 52.703125 75.519531 52.703125 C 69.359375 52.703125 63.195312 52.703125 57.035156 52.703125 C 55.851562 52.703125 54.667969 52.703125 53.488281 52.703125 C 53.488281 47.75 53.488281 42.800781 53.488281 37.847656 C 53.488281 37.464844 52.707031 37.410156 52.480469 37.40625 C 49.117188 37.390625 45.753906 37.371094 42.390625 37.351562 C 41.667969 37.347656 39.988281 37.660156 39.984375 38.632812 C 39.980469 43.324219 39.976562 48.015625 39.972656 52.703125 C 38.390625 52.703125 36.808594 52.703125 35.230469 52.703125 C 35.230469 45.9375 35.230469 39.171875 35.230469 32.40625 C 35.230469 31.828125 35.230469 31.25 35.230469 30.675781 C 35.230469 30.292969 34.449219 30.234375 34.222656 30.234375 C 33.351562 30.234375 32.480469 30.234375 31.605469 30.234375 C 36.332031 25.671875 41.054688 21.109375 45.777344 16.542969 C 45.875 16.449219 45.972656 16.355469 46.074219 16.257812 C 49.34375 19.074219 52.613281 21.894531 55.886719 24.710938 C 56.632812 25.351562 59.1875 24.835938 59.1875 23.683594 C 59.1875 22.738281 59.1875 21.792969 59.1875 20.84375 C 59.554688 20.84375 59.921875 20.84375 60.292969 20.84375 C 60.292969 23 60.292969 25.152344 60.292969 27.304688 C 60.292969 27.578125 60.40625 27.707031 60.589844 27.898438 C 61.015625 28.335938 61.441406 28.769531 61.863281 29.207031 C 62.195312 29.546875 62.523438 29.886719 62.855469 30.226562 C 62.644531 30.226562 62.429688 30.226562 62.21875 30.222656 C 61.464844 30.222656 60.453125 30.453125 59.949219 31.066406 C 59.445312 31.6875 60.351562 31.941406 60.816406 31.941406 C 62.273438 31.945312 63.730469 31.949219 65.183594 31.953125 C 65.59375 31.957031 68.316406 31.351562 67.480469 30.492188 C 66.703125 29.691406 65.925781 28.894531 65.148438 28.097656 C 64.707031 27.644531 64.269531 27.191406 63.828125 26.738281 C 63.792969 26.703125 63.753906 26.664062 63.71875 26.625 C 63.722656 26.617188 63.703125 26.546875 63.703125 26.410156 C 63.703125 24.128906 63.703125 21.847656 63.703125 19.566406 C 63.703125 19.183594 62.921875 19.125 62.695312 19.125 C 61.191406 19.125 59.6875 19.125 58.179688 19.125 C 57.457031 19.125 55.777344 19.429688 55.777344 20.40625 C 55.777344 20.488281 55.777344 20.574219 55.777344 20.660156 C 53.15625 18.402344 50.535156 16.144531 47.914062 13.886719 C 47.085938 13.175781 45.414062 13.839844 44.75 14.476562 C 39.726562 19.332031 34.699219 24.1875 29.675781 29.042969 C 28.972656 29.722656 28.269531 30.402344 27.566406 31.078125 C 26.96875 31.65625 28.046875 31.953125 28.433594 31.953125 C 29.5625 31.953125 30.691406 31.953125 31.820312 31.953125 C 31.820312 38.722656 31.820312 45.488281 31.820312 52.253906 C 31.820312 52.832031 31.820312 53.40625 31.820312 53.984375 C 31.820312 54.367188 32.597656 54.421875 32.824219 54.421875 C 35.542969 54.421875 38.261719 54.421875 40.976562 54.421875 C 41.703125 54.421875 43.382812 54.117188 43.382812 53.144531 C 43.386719 48.457031 43.390625 43.773438 43.394531 39.085938 C 45.621094 39.097656 47.851562 39.109375 50.078125 39.121094 C 50.078125 44.074219 50.078125 49.03125 50.078125 53.984375 C 50.078125 54.367188 50.859375 54.421875 51.082031 54.421875 C 53.980469 54.421875 56.878906 54.421875 59.777344 54.421875 C 66.941406 54.421875 74.101562 54.421875 81.265625 54.421875 C 90.390625 54.421875 99.519531 54.421875 108.648438 54.421875 C 117.441406 54.421875 126.238281 54.421875 135.03125 54.421875 C 141.195312 54.421875 147.355469 54.421875 153.519531 54.421875 C 155.035156 54.421875 156.550781 54.421875 158.070312 54.421875 C 158.824219 54.421875 159.832031 54.195312 160.335938 53.578125 C 160.839844 52.960938 159.9375 52.703125 159.46875 52.703125 " fill-opacity="1" fill-rule="nonzero"/></g><g clip-path="url(#601a8a4ca3)"><g mask="url(#a57ae98273)"><g transform="matrix(1, 0, 0, 1, 45, 50)"><g clip-path="url(#80de9849dc)"><g clip-path="url(#408e0aa6ec)"><path fill="#51ade5" d="M 133.414062 6.75 C 132.296875 2.007812 127.074219 -0.957031 123.195312 1.863281 C 121.925781 2.796875 121.160156 4.585938 121.527344 6.253906 C 121.300781 3.046875 123.269531 1.246094 126.074219 1.539062 C 130.761719 2.082031 133.746094 9.03125 130.804688 13.273438 C 127.085938 20.308594 109.929688 17.914062 102.949219 17.132812 C 90.523438 15.445312 79.316406 11.074219 66.917969 8.265625 C 52.984375 5.132812 38.402344 3.820312 24.402344 7.199219 C 18.128906 8.734375 1.167969 14.117188 0.921875 22.414062 C 1.488281 14.644531 15.058594 11.078125 20.714844 9.78125 C 35.785156 6.570312 51.257812 9.40625 66.058594 12.992188 C 74.710938 15.183594 84.15625 18.546875 93.433594 20.480469 C 102.898438 22.140625 118.9375 23.765625 127.234375 18.027344 C 130.324219 15.5625 134.359375 11.382812 133.414062 6.75 Z M 133.414062 6.75 " fill-opacity="1" fill-rule="nonzero"/></g></g></g></g></g><g fill="#80cc28" fill-opacity="1"><g transform="translate(62.784067, 49.346799)"><g><path d="M 7.390625 -0.1875 C 7.109375 -0.09375 6.742188 -0.015625 6.296875 0.046875 C 5.847656 0.117188 5.421875 0.15625 5.015625 0.15625 C 3.753906 0.15625 2.828125 -0.046875 2.234375 -0.453125 C 1.648438 -0.867188 1.257812 -1.554688 1.0625 -2.515625 C 0.875 -3.484375 0.78125 -4.945312 0.78125 -6.90625 C 0.78125 -8.84375 0.878906 -10.296875 1.078125 -11.265625 C 1.285156 -12.242188 1.6875 -12.9375 2.28125 -13.34375 C 2.875 -13.757812 3.785156 -13.96875 5.015625 -13.96875 C 5.460938 -13.96875 5.898438 -13.9375 6.328125 -13.875 C 6.765625 -13.820312 7.101562 -13.75 7.34375 -13.65625 L 7.34375 -11.40625 C 6.570312 -11.5 5.984375 -11.546875 5.578125 -11.546875 C 4.898438 -11.546875 4.429688 -11.453125 4.171875 -11.265625 C 3.910156 -11.085938 3.738281 -10.703125 3.65625 -10.109375 C 3.582031 -9.523438 3.546875 -8.457031 3.546875 -6.90625 C 3.546875 -5.351562 3.582031 -4.28125 3.65625 -3.6875 C 3.738281 -3.101562 3.910156 -2.71875 4.171875 -2.53125 C 4.429688 -2.351562 4.898438 -2.265625 5.578125 -2.265625 C 6.191406 -2.265625 6.796875 -2.3125 7.390625 -2.40625 Z M 7.390625 -0.1875 "/></g></g></g><g fill="#80cc28" fill-opacity="1"><g transform="translate(71.133792, 49.346799)"><g><path d="M 7.09375 0 L 6.546875 -2.828125 L 3.453125 -2.828125 L 2.90625 0 L 0.15625 0 L 3.015625 -13.8125 L 7.046875 -13.8125 L 9.90625 0 Z M 5.0625 -11.203125 L 4.9375 -11.203125 L 3.859375 -5.21875 L 6.125 -5.21875 Z M 5.0625 -11.203125 "/></g></g></g><g fill="#80cc28" fill-opacity="1"><g transform="translate(81.590974, 49.346799)"><g><path d="M 6.640625 0 L 5.296875 -4.8125 L 3.8125 -4.8125 L 3.8125 0 L 1.046875 0 L 1.046875 -13.8125 L 5.703125 -13.8125 C 6.691406 -13.8125 7.4375 -13.644531 7.9375 -13.3125 C 8.4375 -12.976562 8.773438 -12.492188 8.953125 -11.859375 C 9.128906 -11.234375 9.21875 -10.394531 9.21875 -9.34375 C 9.21875 -8.332031 9.125 -7.5 8.9375 -6.84375 C 8.757812 -6.1875 8.394531 -5.691406 7.84375 -5.359375 L 9.515625 0 Z M 5.046875 -7.203125 C 5.484375 -7.203125 5.796875 -7.253906 5.984375 -7.359375 C 6.171875 -7.460938 6.289062 -7.648438 6.34375 -7.921875 C 6.40625 -8.191406 6.4375 -8.65625 6.4375 -9.3125 C 6.4375 -9.957031 6.40625 -10.410156 6.34375 -10.671875 C 6.289062 -10.941406 6.171875 -11.128906 5.984375 -11.234375 C 5.796875 -11.335938 5.484375 -11.390625 5.046875 -11.390625 L 3.8125 -11.390625 L 3.8125 -7.203125 Z M 5.046875 -7.203125 "/></g></g></g><g fill="#80cc28" fill-opacity="1"><g transform="translate(91.907656, 49.346799)"><g><path d="M 6.640625 0 L 5.296875 -4.8125 L 3.8125 -4.8125 L 3.8125 0 L 1.046875 0 L 1.046875 -13.8125 L 5.703125 -13.8125 C 6.691406 -13.8125 7.4375 -13.644531 7.9375 -13.3125 C 8.4375 -12.976562 8.773438 -12.492188 8.953125 -11.859375 C 9.128906 -11.234375 9.21875 -10.394531 9.21875 -9.34375 C 9.21875 -8.332031 9.125 -7.5 8.9375 -6.84375 C 8.757812 -6.1875 8.394531 -5.691406 7.84375 -5.359375 L 9.515625 0 Z M 5.046875 -7.203125 C 5.484375 -7.203125 5.796875 -7.253906 5.984375 -7.359375 C 6.171875 -7.460938 6.289062 -7.648438 6.34375 -7.921875 C 6.40625 -8.191406 6.4375 -8.65625 6.4375 -9.3125 C 6.4375 -9.957031 6.40625 -10.410156 6.34375 -10.671875 C 6.289062 -10.941406 6.171875 -11.128906 5.984375 -11.234375 C 5.796875 -11.335938 5.484375 -11.390625 5.046875 -11.390625 L 3.8125 -11.390625 L 3.8125 -7.203125 Z M 5.046875 -7.203125 "/></g></g></g><g fill="#80cc28" fill-opacity="1"><g transform="translate(102.224339, 49.346799)"><g><path d="M 1.0625 0 L 1.0625 -13.8125 L 3.8125 -13.8125 L 3.8125 0 Z M 1.0625 0 "/></g></g></g><g fill="#80cc28" fill-opacity="1"><g transform="translate(107.503214, 49.346799)"><g><path d="M 6.96875 0 L 3.75 -7.5625 L 3.671875 -7.5625 L 3.671875 0 L 1.046875 0 L 1.046875 -13.8125 L 3.71875 -13.8125 L 6.703125 -6.828125 L 6.8125 -6.828125 L 6.8125 -13.8125 L 9.453125 -13.8125 L 9.453125 0 Z M 6.96875 0 "/></g></g></g><g fill="#80cc28" fill-opacity="1"><g transform="translate(118.401953, 49.346799)"><g><path d="M 5.046875 -5.65625 L 5.046875 -8.03125 L 8.828125 -8.03125 L 8.828125 -0.265625 C 8.359375 -0.140625 7.789062 -0.0390625 7.125 0.03125 C 6.457031 0.113281 5.835938 0.15625 5.265625 0.15625 C 3.992188 0.15625 3.046875 -0.03125 2.421875 -0.40625 C 1.796875 -0.789062 1.363281 -1.472656 1.125 -2.453125 C 0.894531 -3.441406 0.78125 -4.925781 0.78125 -6.90625 C 0.78125 -8.875 0.90625 -10.347656 1.15625 -11.328125 C 1.40625 -12.316406 1.859375 -13.003906 2.515625 -13.390625 C 3.171875 -13.773438 4.15625 -13.96875 5.46875 -13.96875 C 6 -13.96875 6.578125 -13.925781 7.203125 -13.84375 C 7.835938 -13.769531 8.375 -13.679688 8.8125 -13.578125 L 8.8125 -11.296875 C 7.664062 -11.460938 6.828125 -11.546875 6.296875 -11.546875 C 5.390625 -11.546875 4.765625 -11.472656 4.421875 -11.328125 C 4.085938 -11.179688 3.851562 -10.800781 3.71875 -10.1875 C 3.59375 -9.582031 3.53125 -8.488281 3.53125 -6.90625 C 3.53125 -5.4375 3.570312 -4.390625 3.65625 -3.765625 C 3.738281 -3.140625 3.894531 -2.71875 4.125 -2.5 C 4.363281 -2.289062 4.765625 -2.1875 5.328125 -2.1875 C 5.441406 -2.1875 5.757812 -2.207031 6.28125 -2.25 L 6.28125 -5.65625 Z M 5.046875 -5.65625 "/></g></g></g><g fill="#80cc28" fill-opacity="1"><g transform="translate(129.726869, 62.443745)"><g><path d="M 5.09375 0 L 5.09375 -4.984375 L 5.03125 -4.984375 L 4.0625 0 L 2.8125 0 L 1.859375 -4.984375 L 1.78125 -4.984375 L 1.78125 0 L 0.515625 0 L 0.515625 -6.765625 L 2.5625 -6.765625 L 3.4375 -2.078125 L 3.515625 -2.078125 L 4.390625 -6.765625 L 6.390625 -6.765625 L 6.390625 0 Z M 5.09375 0 "/></g></g></g><g fill="#80cc28" fill-opacity="1"><g transform="translate(136.636922, 62.443745)"><g><path d="M 1.390625 0.078125 C 0.984375 0.078125 0.691406 -0.0390625 0.515625 -0.28125 C 0.335938 -0.53125 0.25 -0.914062 0.25 -1.4375 C 0.25 -1.832031 0.285156 -2.140625 0.359375 -2.359375 C 0.441406 -2.578125 0.578125 -2.734375 0.765625 -2.828125 C 0.953125 -2.929688 1.210938 -2.984375 1.546875 -2.984375 C 1.773438 -2.984375 2.085938 -2.972656 2.484375 -2.953125 L 2.484375 -3.171875 C 2.484375 -3.453125 2.460938 -3.648438 2.421875 -3.765625 C 2.378906 -3.878906 2.300781 -3.953125 2.1875 -3.984375 C 2.070312 -4.015625 1.875 -4.03125 1.59375 -4.03125 C 1.3125 -4.03125 0.941406 -4.003906 0.484375 -3.953125 L 0.484375 -4.9375 C 0.984375 -5.039062 1.476562 -5.09375 1.96875 -5.09375 C 2.46875 -5.09375 2.84375 -5.023438 3.09375 -4.890625 C 3.351562 -4.765625 3.523438 -4.5625 3.609375 -4.28125 C 3.703125 -4 3.75 -3.59375 3.75 -3.0625 L 3.75 0 L 2.546875 0 L 2.5 -0.59375 L 2.4375 -0.59375 C 2.351562 -0.34375 2.210938 -0.164062 2.015625 -0.0625 C 1.828125 0.03125 1.617188 0.078125 1.390625 0.078125 Z M 1.9375 -1.015625 C 2.050781 -1.015625 2.140625 -1.023438 2.203125 -1.046875 C 2.273438 -1.078125 2.332031 -1.128906 2.375 -1.203125 C 2.445312 -1.316406 2.484375 -1.546875 2.484375 -1.890625 L 2.484375 -2.125 L 1.890625 -2.125 C 1.722656 -2.125 1.609375 -2.085938 1.546875 -2.015625 C 1.492188 -1.953125 1.46875 -1.796875 1.46875 -1.546875 C 1.46875 -1.335938 1.492188 -1.195312 1.546875 -1.125 C 1.609375 -1.050781 1.738281 -1.015625 1.9375 -1.015625 Z M 1.9375 -1.015625 "/></g></g></g><g fill="#80cc28" fill-opacity="1"><g transform="translate(140.824237, 62.443745)"><g><path d="M 2.71875 -2.71875 C 2.71875 -3.132812 2.707031 -3.421875 2.6875 -3.578125 C 2.664062 -3.734375 2.625 -3.832031 2.5625 -3.875 C 2.507812 -3.914062 2.398438 -3.9375 2.234375 -3.9375 C 2.066406 -3.9375 1.945312 -3.90625 1.875 -3.84375 C 1.8125 -3.78125 1.769531 -3.65625 1.75 -3.46875 C 1.726562 -3.289062 1.71875 -2.988281 1.71875 -2.5625 L 1.71875 0 L 0.453125 0 L 0.453125 -5.015625 L 1.65625 -5.015625 L 1.6875 -4.40625 L 1.765625 -4.40625 C 1.847656 -4.65625 1.984375 -4.832031 2.171875 -4.9375 C 2.367188 -5.039062 2.601562 -5.09375 2.875 -5.09375 C 3.1875 -5.09375 3.421875 -5.03125 3.578125 -4.90625 C 3.742188 -4.78125 3.851562 -4.585938 3.90625 -4.328125 C 3.957031 -4.078125 3.984375 -3.734375 3.984375 -3.296875 L 3.984375 0 L 2.71875 0 Z M 2.71875 -2.71875 "/></g></g></g><g fill="#80cc28" fill-opacity="1"><g transform="translate(145.247455, 62.443745)"><g><path d="M 1.390625 0.078125 C 0.984375 0.078125 0.691406 -0.0390625 0.515625 -0.28125 C 0.335938 -0.53125 0.25 -0.914062 0.25 -1.4375 C 0.25 -1.832031 0.285156 -2.140625 0.359375 -2.359375 C 0.441406 -2.578125 0.578125 -2.734375 0.765625 -2.828125 C 0.953125 -2.929688 1.210938 -2.984375 1.546875 -2.984375 C 1.773438 -2.984375 2.085938 -2.972656 2.484375 -2.953125 L 2.484375 -3.171875 C 2.484375 -3.453125 2.460938 -3.648438 2.421875 -3.765625 C 2.378906 -3.878906 2.300781 -3.953125 2.1875 -3.984375 C 2.070312 -4.015625 1.875 -4.03125 1.59375 -4.03125 C 1.3125 -4.03125 0.941406 -4.003906 0.484375 -3.953125 L 0.484375 -4.9375 C 0.984375 -5.039062 1.476562 -5.09375 1.96875 -5.09375 C 2.46875 -5.09375 2.84375 -5.023438 3.09375 -4.890625 C 3.351562 -4.765625 3.523438 -4.5625 3.609375 -4.28125 C 3.703125 -4 3.75 -3.59375 3.75 -3.0625 L 3.75 0 L 2.546875 0 L 2.5 -0.59375 L 2.4375 -0.59375 C 2.351562 -0.34375 2.210938 -0.164062 2.015625 -0.0625 C 1.828125 0.03125 1.617188 0.078125 1.390625 0.078125 Z M 1.9375 -1.015625 C 2.050781 -1.015625 2.140625 -1.023438 2.203125 -1.046875 C 2.273438 -1.078125 2.332031 -1.128906 2.375 -1.203125 C 2.445312 -1.316406 2.484375 -1.546875 2.484375 -1.890625 L 2.484375 -2.125 L 1.890625 -2.125 C 1.722656 -2.125 1.609375 -2.085938 1.546875 -2.015625 C 1.492188 -1.953125 1.46875 -1.796875 1.46875 -1.546875 C 1.46875 -1.335938 1.492188 -1.195312 1.546875 -1.125 C 1.609375 -1.050781 1.738281 -1.015625 1.9375 -1.015625 Z M 1.9375 -1.015625 "/></g></g></g><g fill="#80cc28" fill-opacity="1"><g transform="translate(149.434771, 62.443745)"><g><path d="M 2.03125 2 C 1.800781 2 1.550781 1.988281 1.28125 1.96875 C 1.019531 1.945312 0.8125 1.921875 0.65625 1.890625 L 0.65625 0.90625 C 0.769531 0.90625 0.851562 0.910156 0.90625 0.921875 L 1.734375 0.9375 C 2.046875 0.9375 2.257812 0.910156 2.375 0.859375 C 2.5 0.804688 2.578125 0.703125 2.609375 0.546875 C 2.640625 0.398438 2.65625 0.132812 2.65625 -0.25 L 2.65625 -0.625 L 2.578125 -0.625 C 2.429688 -0.21875 2.097656 -0.015625 1.578125 -0.015625 C 1.253906 -0.015625 1 -0.09375 0.8125 -0.25 C 0.632812 -0.40625 0.507812 -0.660156 0.4375 -1.015625 C 0.363281 -1.367188 0.328125 -1.878906 0.328125 -2.546875 C 0.328125 -3.222656 0.363281 -3.742188 0.4375 -4.109375 C 0.519531 -4.472656 0.648438 -4.726562 0.828125 -4.875 C 1.003906 -5.019531 1.257812 -5.09375 1.59375 -5.09375 C 1.820312 -5.09375 2.03125 -5.039062 2.21875 -4.9375 C 2.40625 -4.832031 2.535156 -4.660156 2.609375 -4.421875 L 2.6875 -4.421875 L 2.734375 -5.015625 L 3.9375 -5.015625 L 3.9375 -0.59375 C 3.9375 0.0820312 3.898438 0.59375 3.828125 0.9375 C 3.753906 1.28125 3.582031 1.539062 3.3125 1.71875 C 3.039062 1.90625 2.613281 2 2.03125 2 Z M 2.125 -1.15625 C 2.269531 -1.15625 2.378906 -1.175781 2.453125 -1.21875 C 2.523438 -1.257812 2.578125 -1.347656 2.609375 -1.484375 C 2.640625 -1.640625 2.65625 -1.992188 2.65625 -2.546875 C 2.65625 -3.035156 2.640625 -3.363281 2.609375 -3.53125 C 2.585938 -3.695312 2.539062 -3.804688 2.46875 -3.859375 C 2.40625 -3.910156 2.289062 -3.9375 2.125 -3.9375 C 1.957031 -3.9375 1.835938 -3.910156 1.765625 -3.859375 C 1.703125 -3.816406 1.660156 -3.703125 1.640625 -3.515625 C 1.617188 -3.335938 1.609375 -3.015625 1.609375 -2.546875 C 1.609375 -2.078125 1.617188 -1.75 1.640625 -1.5625 C 1.660156 -1.382812 1.703125 -1.269531 1.765625 -1.21875 C 1.835938 -1.175781 1.957031 -1.15625 2.125 -1.15625 Z M 2.125 -1.15625 "/></g></g></g><g fill="#80cc28" fill-opacity="1"><g transform="translate(153.818675, 62.443745)"><g><path d="M 3.828125 -2.109375 L 1.609375 -2.109375 C 1.609375 -1.734375 1.625 -1.472656 1.65625 -1.328125 C 1.6875 -1.191406 1.757812 -1.097656 1.875 -1.046875 C 1.988281 -1.003906 2.203125 -0.984375 2.515625 -0.984375 C 2.765625 -0.984375 3.164062 -1.003906 3.71875 -1.046875 L 3.71875 -0.0625 C 3.539062 -0.03125 3.3125 0 3.03125 0.03125 C 2.75 0.0625 2.476562 0.078125 2.21875 0.078125 C 1.632812 0.078125 1.207031 -0.00390625 0.9375 -0.171875 C 0.675781 -0.347656 0.507812 -0.609375 0.4375 -0.953125 C 0.363281 -1.296875 0.328125 -1.8125 0.328125 -2.5 C 0.328125 -3.175781 0.363281 -3.6875 0.4375 -4.03125 C 0.507812 -4.375 0.671875 -4.632812 0.921875 -4.8125 C 1.179688 -5 1.585938 -5.09375 2.140625 -5.09375 C 2.679688 -5.09375 3.070312 -5.007812 3.3125 -4.84375 C 3.550781 -4.675781 3.695312 -4.425781 3.75 -4.09375 C 3.800781 -3.757812 3.828125 -3.226562 3.828125 -2.5 Z M 2.125 -4.046875 C 1.96875 -4.046875 1.851562 -4.019531 1.78125 -3.96875 C 1.71875 -3.925781 1.671875 -3.832031 1.640625 -3.6875 C 1.617188 -3.539062 1.609375 -3.300781 1.609375 -2.96875 L 2.640625 -2.96875 C 2.640625 -3.300781 2.625 -3.539062 2.59375 -3.6875 C 2.570312 -3.832031 2.53125 -3.925781 2.46875 -3.96875 C 2.40625 -4.019531 2.289062 -4.046875 2.125 -4.046875 Z M 2.125 -4.046875 "/></g></g></g><g fill="#80cc28" fill-opacity="1"><g transform="translate(157.996162, 62.443745)"><g><path d="M 4.859375 -2.71875 C 4.859375 -3.125 4.847656 -3.40625 4.828125 -3.5625 C 4.816406 -3.726562 4.78125 -3.832031 4.71875 -3.875 C 4.664062 -3.914062 4.5625 -3.9375 4.40625 -3.9375 C 4.25 -3.9375 4.140625 -3.90625 4.078125 -3.84375 C 4.015625 -3.78125 3.972656 -3.660156 3.953125 -3.484375 C 3.941406 -3.304688 3.9375 -3 3.9375 -2.5625 L 3.9375 0 L 2.65625 0 L 2.65625 -2.71875 C 2.65625 -3.125 2.644531 -3.40625 2.625 -3.5625 C 2.613281 -3.726562 2.578125 -3.832031 2.515625 -3.875 C 2.460938 -3.914062 2.359375 -3.9375 2.203125 -3.9375 C 2.046875 -3.9375 1.9375 -3.90625 1.875 -3.84375 C 1.8125 -3.78125 1.769531 -3.65625 1.75 -3.46875 C 1.726562 -3.289062 1.71875 -2.988281 1.71875 -2.5625 L 1.71875 0 L 0.453125 0 L 0.453125 -5.015625 L 1.65625 -5.015625 L 1.6875 -4.40625 L 1.765625 -4.40625 C 1.859375 -4.65625 1.992188 -4.832031 2.171875 -4.9375 C 2.347656 -5.039062 2.570312 -5.09375 2.84375 -5.09375 C 3.144531 -5.09375 3.375 -5.035156 3.53125 -4.921875 C 3.6875 -4.816406 3.796875 -4.644531 3.859375 -4.40625 L 3.9375 -4.40625 C 4.019531 -4.65625 4.15625 -4.832031 4.34375 -4.9375 C 4.53125 -5.039062 4.757812 -5.09375 5.03125 -5.09375 C 5.332031 -5.09375 5.5625 -5.03125 5.71875 -4.90625 C 5.875 -4.789062 5.976562 -4.609375 6.03125 -4.359375 C 6.09375 -4.109375 6.125 -3.769531 6.125 -3.34375 L 6.125 0 L 4.859375 0 Z M 4.859375 -2.71875 "/></g></g></g><g fill="#80cc28" fill-opacity="1"><g transform="translate(164.572018, 62.443745)"><g><path d="M 3.828125 -2.109375 L 1.609375 -2.109375 C 1.609375 -1.734375 1.625 -1.472656 1.65625 -1.328125 C 1.6875 -1.191406 1.757812 -1.097656 1.875 -1.046875 C 1.988281 -1.003906 2.203125 -0.984375 2.515625 -0.984375 C 2.765625 -0.984375 3.164062 -1.003906 3.71875 -1.046875 L 3.71875 -0.0625 C 3.539062 -0.03125 3.3125 0 3.03125 0.03125 C 2.75 0.0625 2.476562 0.078125 2.21875 0.078125 C 1.632812 0.078125 1.207031 -0.00390625 0.9375 -0.171875 C 0.675781 -0.347656 0.507812 -0.609375 0.4375 -0.953125 C 0.363281 -1.296875 0.328125 -1.8125 0.328125 -2.5 C 0.328125 -3.175781 0.363281 -3.6875 0.4375 -4.03125 C 0.507812 -4.375 0.671875 -4.632812 0.921875 -4.8125 C 1.179688 -5 1.585938 -5.09375 2.140625 -5.09375 C 2.679688 -5.09375 3.070312 -5.007812 3.3125 -4.84375 C 3.550781 -4.675781 3.695312 -4.425781 3.75 -4.09375 C 3.800781 -3.757812 3.828125 -3.226562 3.828125 -2.5 Z M 2.125 -4.046875 C 1.96875 -4.046875 1.851562 -4.019531 1.78125 -3.96875 C 1.71875 -3.925781 1.671875 -3.832031 1.640625 -3.6875 C 1.617188 -3.539062 1.609375 -3.300781 1.609375 -2.96875 L 2.640625 -2.96875 C 2.640625 -3.300781 2.625 -3.539062 2.59375 -3.6875 C 2.570312 -3.832031 2.53125 -3.925781 2.46875 -3.96875 C 2.40625 -4.019531 2.289062 -4.046875 2.125 -4.046875 Z M 2.125 -4.046875 "/></g></g></g><g fill="#80cc28" fill-opacity="1"><g transform="translate(168.749505, 62.443745)"><g><path d="M 2.71875 -2.71875 C 2.71875 -3.132812 2.707031 -3.421875 2.6875 -3.578125 C 2.664062 -3.734375 2.625 -3.832031 2.5625 -3.875 C 2.507812 -3.914062 2.398438 -3.9375 2.234375 -3.9375 C 2.066406 -3.9375 1.945312 -3.90625 1.875 -3.84375 C 1.8125 -3.78125 1.769531 -3.65625 1.75 -3.46875 C 1.726562 -3.289062 1.71875 -2.988281 1.71875 -2.5625 L 1.71875 0 L 0.453125 0 L 0.453125 -5.015625 L 1.65625 -5.015625 L 1.6875 -4.40625 L 1.765625 -4.40625 C 1.847656 -4.65625 1.984375 -4.832031 2.171875 -4.9375 C 2.367188 -5.039062 2.601562 -5.09375 2.875 -5.09375 C 3.1875 -5.09375 3.421875 -5.03125 3.578125 -4.90625 C 3.742188 -4.78125 3.851562 -4.585938 3.90625 -4.328125 C 3.957031 -4.078125 3.984375 -3.734375 3.984375 -3.296875 L 3.984375 0 L 2.71875 0 Z M 2.71875 -2.71875 "/></g></g></g><g fill="#80cc28" fill-opacity="1"><g transform="translate(173.172723, 62.443745)"><g><path d="M 0.765625 0 L 0.765625 -3.953125 L 0.140625 -3.953125 L 0.140625 -5.015625 L 0.765625 -5.015625 L 0.765625 -6.46875 L 2.03125 -6.46875 L 2.03125 -5.015625 L 2.828125 -5.015625 L 2.828125 -3.953125 L 2.03125 -3.953125 L 2.03125 0 Z M 0.765625 0 "/></g></g></g></svg>