<svg xmlns="http://www.w3.org/2000/svg" xmlns:xlink="http://www.w3.org/1999/xlink" width="250" zoomAndPan="magnify" viewBox="0 0 187.5 74.999997" height="100" preserveAspectRatio="xMidYMid meet" version="1.0"><defs><filter x="0%" y="0%" width="100%" height="100%" id="fb64b33024"><feColorMatrix values="0 0 0 0 1 0 0 0 0 1 0 0 0 0 1 0 0 0 1 0" color-interpolation-filters="sRGB"/></filter><g/><clipPath id="123cca4fbe"><path d="M 2.101562 2.058594 L 169 2.058594 L 169 53.808594 L 2.101562 53.808594 Z M 2.101562 2.058594 " clip-rule="nonzero"/></clipPath><clipPath id="ae7e2408c2"><path d="M 34.59375 48 L 184 48 L 184 74 L 34.59375 74 Z M 34.59375 48 " clip-rule="nonzero"/></clipPath><mask id="4bfe5709b9"><g filter="url(#fb64b33024)"><rect x="-18.75" width="225" fill="#000000" y="-7.5" height="89.999996" fill-opacity="0.9843"/></g></mask><clipPath id="ef44ab3826"><path d="M 1 1 L 149.828125 1 L 149.828125 25.824219 L 1 25.824219 Z M 1 1 " clip-rule="nonzero"/></clipPath><clipPath id="166501ab35"><rect x="0" width="150" y="0" height="26"/></clipPath></defs><g clip-path="url(#123cca4fbe)"><path fill="#51ade5" d="M 167.398438 51.640625 C 163.785156 51.640625 160.175781 51.640625 156.566406 51.640625 C 147.644531 51.640625 138.722656 51.640625 129.800781 51.640625 C 118.433594 51.640625 107.0625 51.640625 95.691406 51.640625 C 84.738281 51.640625 73.785156 51.640625 62.828125 51.640625 C 55.152344 51.640625 47.476562 51.640625 39.800781 51.640625 C 38.328125 51.640625 36.855469 51.640625 35.382812 51.640625 C 35.382812 45.429688 35.382812 39.214844 35.382812 33 C 35.382812 32.523438 34.414062 32.453125 34.132812 32.449219 C 29.941406 32.429688 25.753906 32.40625 21.5625 32.382812 C 20.660156 32.378906 18.566406 32.769531 18.566406 33.988281 C 18.5625 39.871094 18.554688 45.757812 18.550781 51.640625 C 16.582031 51.640625 14.613281 51.640625 12.640625 51.640625 C 12.640625 43.152344 12.640625 34.664062 12.640625 26.175781 C 12.640625 25.449219 12.640625 24.726562 12.640625 24.003906 C 12.640625 23.527344 11.667969 23.453125 11.390625 23.453125 C 10.304688 23.453125 9.214844 23.453125 8.128906 23.453125 C 14.011719 17.726562 19.898438 12.003906 25.78125 6.277344 C 25.902344 6.15625 26.027344 6.039062 26.148438 5.917969 C 30.222656 9.453125 34.296875 12.988281 38.371094 16.519531 C 39.300781 17.324219 42.484375 16.679688 42.484375 15.234375 C 42.484375 14.046875 42.484375 12.859375 42.484375 11.671875 C 42.941406 11.671875 43.402344 11.671875 43.859375 11.671875 C 43.859375 14.375 43.859375 17.078125 43.859375 19.777344 C 43.859375 20.121094 44 20.28125 44.234375 20.523438 C 44.761719 21.070312 45.289062 21.617188 45.820312 22.164062 C 46.230469 22.589844 46.640625 23.015625 47.054688 23.441406 C 46.789062 23.441406 46.523438 23.441406 46.257812 23.4375 C 45.320312 23.4375 44.058594 23.726562 43.4375 24.496094 C 42.808594 25.273438 43.933594 25.59375 44.515625 25.59375 C 46.328125 25.601562 48.144531 25.605469 49.957031 25.609375 C 50.464844 25.613281 53.859375 24.851562 52.8125 23.773438 C 51.847656 22.773438 50.878906 21.769531 49.910156 20.769531 C 49.363281 20.203125 48.8125 19.632812 48.265625 19.066406 C 48.21875 19.019531 48.171875 18.972656 48.128906 18.925781 C 48.132812 18.914062 48.109375 18.828125 48.109375 18.65625 C 48.109375 15.792969 48.109375 12.929688 48.109375 10.066406 C 48.109375 9.589844 47.136719 9.515625 46.855469 9.515625 C 44.980469 9.515625 43.105469 9.515625 41.230469 9.515625 C 40.328125 9.515625 38.234375 9.898438 38.234375 11.121094 C 38.234375 11.226562 38.234375 11.332031 38.234375 11.4375 C 34.96875 8.605469 31.707031 5.777344 28.441406 2.945312 C 27.410156 2.050781 25.328125 2.882812 24.503906 3.683594 C 18.242188 9.773438 11.984375 15.867188 5.722656 21.957031 C 4.847656 22.808594 3.972656 23.660156 3.097656 24.511719 C 2.351562 25.238281 3.695312 25.609375 4.179688 25.609375 C 5.582031 25.609375 6.988281 25.609375 8.394531 25.609375 C 8.394531 34.097656 8.394531 42.589844 8.394531 51.078125 C 8.394531 51.800781 8.394531 52.523438 8.394531 53.246094 C 8.394531 53.726562 9.367188 53.796875 9.644531 53.796875 C 13.03125 53.796875 16.417969 53.796875 19.800781 53.796875 C 20.703125 53.796875 22.796875 53.414062 22.796875 52.191406 C 22.804688 46.3125 22.808594 40.433594 22.8125 34.554688 C 25.589844 34.570312 28.363281 34.585938 31.136719 34.601562 C 31.136719 40.816406 31.136719 47.03125 31.136719 53.246094 C 31.136719 53.726562 32.109375 53.796875 32.390625 53.796875 C 36 53.796875 39.609375 53.796875 43.21875 53.796875 C 52.140625 53.796875 61.0625 53.796875 69.984375 53.796875 C 81.355469 53.796875 92.722656 53.796875 104.09375 53.796875 C 115.046875 53.796875 126.003906 53.796875 136.957031 53.796875 C 144.632812 53.796875 152.308594 53.796875 159.984375 53.796875 C 161.875 53.796875 163.765625 53.796875 165.652344 53.796875 C 166.59375 53.796875 167.851562 53.511719 168.476562 52.738281 C 169.105469 51.964844 167.980469 51.640625 167.398438 51.640625 " fill-opacity="1" fill-rule="nonzero"/></g><g clip-path="url(#ae7e2408c2)"><g mask="url(#4bfe5709b9)"><g transform="matrix(1, 0, 0, 1, 34, 48)"><g clip-path="url(#166501ab35)"><g clip-path="url(#ef44ab3826)"><path fill="#51ade5" d="M 149.105469 7.84375 C 147.859375 2.527344 142.019531 -0.796875 137.6875 2.367188 C 136.273438 3.410156 135.417969 5.417969 135.824219 7.285156 C 135.570312 3.691406 137.769531 1.671875 140.90625 2.003906 C 146.140625 2.609375 149.480469 10.398438 146.191406 15.15625 C 142.035156 23.046875 122.871094 20.359375 115.070312 19.484375 C 101.1875 17.59375 88.664062 12.691406 74.8125 9.542969 C 59.246094 6.03125 42.953125 4.558594 27.308594 8.34375 C 20.300781 10.070312 1.351562 16.105469 1.074219 25.40625 C 1.710938 16.695312 16.871094 12.699219 23.191406 11.242188 C 40.027344 7.640625 57.316406 10.820312 73.851562 14.839844 C 83.515625 17.300781 94.070312 21.070312 104.433594 23.238281 C 115.011719 25.101562 132.933594 26.921875 142.199219 20.488281 C 145.652344 17.722656 150.164062 13.039062 149.105469 7.84375 Z M 149.105469 7.84375 " fill-opacity="1" fill-rule="nonzero"/></g></g></g></g></g><g fill="#000000" fill-opacity="1"><g transform="translate(46.584069, 47.2468)"><g><path d="M 7.390625 -0.1875 C 7.109375 -0.09375 6.742188 -0.015625 6.296875 0.046875 C 5.847656 0.117188 5.421875 0.15625 5.015625 0.15625 C 3.753906 0.15625 2.828125 -0.046875 2.234375 -0.453125 C 1.648438 -0.867188 1.257812 -1.554688 1.0625 -2.515625 C 0.875 -3.484375 0.78125 -4.945312 0.78125 -6.90625 C 0.78125 -8.84375 0.878906 -10.296875 1.078125 -11.265625 C 1.285156 -12.242188 1.6875 -12.9375 2.28125 -13.34375 C 2.875 -13.757812 3.785156 -13.96875 5.015625 -13.96875 C 5.460938 -13.96875 5.898438 -13.9375 6.328125 -13.875 C 6.765625 -13.820312 7.101562 -13.75 7.34375 -13.65625 L 7.34375 -11.40625 C 6.570312 -11.5 5.984375 -11.546875 5.578125 -11.546875 C 4.898438 -11.546875 4.429688 -11.453125 4.171875 -11.265625 C 3.910156 -11.085938 3.738281 -10.703125 3.65625 -10.109375 C 3.582031 -9.523438 3.546875 -8.457031 3.546875 -6.90625 C 3.546875 -5.351562 3.582031 -4.28125 3.65625 -3.6875 C 3.738281 -3.101562 3.910156 -2.71875 4.171875 -2.53125 C 4.429688 -2.351562 4.898438 -2.265625 5.578125 -2.265625 C 6.191406 -2.265625 6.796875 -2.3125 7.390625 -2.40625 Z M 7.390625 -0.1875 "/></g></g></g><g fill="#000000" fill-opacity="1"><g transform="translate(54.933794, 47.2468)"><g><path d="M 7.09375 0 L 6.546875 -2.828125 L 3.453125 -2.828125 L 2.90625 0 L 0.15625 0 L 3.015625 -13.8125 L 7.046875 -13.8125 L 9.90625 0 Z M 5.0625 -11.203125 L 4.9375 -11.203125 L 3.859375 -5.21875 L 6.125 -5.21875 Z M 5.0625 -11.203125 "/></g></g></g><g fill="#000000" fill-opacity="1"><g transform="translate(65.390976, 47.2468)"><g><path d="M 6.640625 0 L 5.296875 -4.8125 L 3.8125 -4.8125 L 3.8125 0 L 1.046875 0 L 1.046875 -13.8125 L 5.703125 -13.8125 C 6.691406 -13.8125 7.4375 -13.644531 7.9375 -13.3125 C 8.4375 -12.976562 8.773438 -12.492188 8.953125 -11.859375 C 9.128906 -11.234375 9.21875 -10.394531 9.21875 -9.34375 C 9.21875 -8.332031 9.125 -7.5 8.9375 -6.84375 C 8.757812 -6.1875 8.394531 -5.691406 7.84375 -5.359375 L 9.515625 0 Z M 5.046875 -7.203125 C 5.484375 -7.203125 5.796875 -7.253906 5.984375 -7.359375 C 6.171875 -7.460938 6.289062 -7.648438 6.34375 -7.921875 C 6.40625 -8.191406 6.4375 -8.65625 6.4375 -9.3125 C 6.4375 -9.957031 6.40625 -10.410156 6.34375 -10.671875 C 6.289062 -10.941406 6.171875 -11.128906 5.984375 -11.234375 C 5.796875 -11.335938 5.484375 -11.390625 5.046875 -11.390625 L 3.8125 -11.390625 L 3.8125 -7.203125 Z M 5.046875 -7.203125 "/></g></g></g><g fill="#000000" fill-opacity="1"><g transform="translate(75.707659, 47.2468)"><g><path d="M 6.640625 0 L 5.296875 -4.8125 L 3.8125 -4.8125 L 3.8125 0 L 1.046875 0 L 1.046875 -13.8125 L 5.703125 -13.8125 C 6.691406 -13.8125 7.4375 -13.644531 7.9375 -13.3125 C 8.4375 -12.976562 8.773438 -12.492188 8.953125 -11.859375 C 9.128906 -11.234375 9.21875 -10.394531 9.21875 -9.34375 C 9.21875 -8.332031 9.125 -7.5 8.9375 -6.84375 C 8.757812 -6.1875 8.394531 -5.691406 7.84375 -5.359375 L 9.515625 0 Z M 5.046875 -7.203125 C 5.484375 -7.203125 5.796875 -7.253906 5.984375 -7.359375 C 6.171875 -7.460938 6.289062 -7.648438 6.34375 -7.921875 C 6.40625 -8.191406 6.4375 -8.65625 6.4375 -9.3125 C 6.4375 -9.957031 6.40625 -10.410156 6.34375 -10.671875 C 6.289062 -10.941406 6.171875 -11.128906 5.984375 -11.234375 C 5.796875 -11.335938 5.484375 -11.390625 5.046875 -11.390625 L 3.8125 -11.390625 L 3.8125 -7.203125 Z M 5.046875 -7.203125 "/></g></g></g><g fill="#000000" fill-opacity="1"><g transform="translate(86.024341, 47.2468)"><g><path d="M 1.0625 0 L 1.0625 -13.8125 L 3.8125 -13.8125 L 3.8125 0 Z M 1.0625 0 "/></g></g></g><g fill="#000000" fill-opacity="1"><g transform="translate(91.303216, 47.2468)"><g><path d="M 6.96875 0 L 3.75 -7.5625 L 3.671875 -7.5625 L 3.671875 0 L 1.046875 0 L 1.046875 -13.8125 L 3.71875 -13.8125 L 6.703125 -6.828125 L 6.8125 -6.828125 L 6.8125 -13.8125 L 9.453125 -13.8125 L 9.453125 0 Z M 6.96875 0 "/></g></g></g><g fill="#000000" fill-opacity="1"><g transform="translate(102.201955, 47.2468)"><g><path d="M 5.046875 -5.65625 L 5.046875 -8.03125 L 8.828125 -8.03125 L 8.828125 -0.265625 C 8.359375 -0.140625 7.789062 -0.0390625 7.125 0.03125 C 6.457031 0.113281 5.835938 0.15625 5.265625 0.15625 C 3.992188 0.15625 3.046875 -0.03125 2.421875 -0.40625 C 1.796875 -0.789062 1.363281 -1.472656 1.125 -2.453125 C 0.894531 -3.441406 0.78125 -4.925781 0.78125 -6.90625 C 0.78125 -8.875 0.90625 -10.347656 1.15625 -11.328125 C 1.40625 -12.316406 1.859375 -13.003906 2.515625 -13.390625 C 3.171875 -13.773438 4.15625 -13.96875 5.46875 -13.96875 C 6 -13.96875 6.578125 -13.925781 7.203125 -13.84375 C 7.835938 -13.769531 8.375 -13.679688 8.8125 -13.578125 L 8.8125 -11.296875 C 7.664062 -11.460938 6.828125 -11.546875 6.296875 -11.546875 C 5.390625 -11.546875 4.765625 -11.472656 4.421875 -11.328125 C 4.085938 -11.179688 3.851562 -10.800781 3.71875 -10.1875 C 3.59375 -9.582031 3.53125 -8.488281 3.53125 -6.90625 C 3.53125 -5.4375 3.570312 -4.390625 3.65625 -3.765625 C 3.738281 -3.140625 3.894531 -2.71875 4.125 -2.5 C 4.363281 -2.289062 4.765625 -2.1875 5.328125 -2.1875 C 5.441406 -2.1875 5.757812 -2.207031 6.28125 -2.25 L 6.28125 -5.65625 Z M 5.046875 -5.65625 "/></g></g></g><g fill="#000000" fill-opacity="1"><g transform="translate(129.726869, 62.443745)"><g><path d="M 5.09375 0 L 5.09375 -4.984375 L 5.03125 -4.984375 L 4.0625 0 L 2.8125 0 L 1.859375 -4.984375 L 1.78125 -4.984375 L 1.78125 0 L 0.515625 0 L 0.515625 -6.765625 L 2.5625 -6.765625 L 3.4375 -2.078125 L 3.515625 -2.078125 L 4.390625 -6.765625 L 6.390625 -6.765625 L 6.390625 0 Z M 5.09375 0 "/></g></g></g><g fill="#000000" fill-opacity="1"><g transform="translate(136.636922, 62.443745)"><g><path d="M 1.390625 0.078125 C 0.984375 0.078125 0.691406 -0.0390625 0.515625 -0.28125 C 0.335938 -0.53125 0.25 -0.914062 0.25 -1.4375 C 0.25 -1.832031 0.285156 -2.140625 0.359375 -2.359375 C 0.441406 -2.578125 0.578125 -2.734375 0.765625 -2.828125 C 0.953125 -2.929688 1.210938 -2.984375 1.546875 -2.984375 C 1.773438 -2.984375 2.085938 -2.972656 2.484375 -2.953125 L 2.484375 -3.171875 C 2.484375 -3.453125 2.460938 -3.648438 2.421875 -3.765625 C 2.378906 -3.878906 2.300781 -3.953125 2.1875 -3.984375 C 2.070312 -4.015625 1.875 -4.03125 1.59375 -4.03125 C 1.3125 -4.03125 0.941406 -4.003906 0.484375 -3.953125 L 0.484375 -4.9375 C 0.984375 -5.039062 1.476562 -5.09375 1.96875 -5.09375 C 2.46875 -5.09375 2.84375 -5.023438 3.09375 -4.890625 C 3.351562 -4.765625 3.523438 -4.5625 3.609375 -4.28125 C 3.703125 -4 3.75 -3.59375 3.75 -3.0625 L 3.75 0 L 2.546875 0 L 2.5 -0.59375 L 2.4375 -0.59375 C 2.351562 -0.34375 2.210938 -0.164062 2.015625 -0.0625 C 1.828125 0.03125 1.617188 0.078125 1.390625 0.078125 Z M 1.9375 -1.015625 C 2.050781 -1.015625 2.140625 -1.023438 2.203125 -1.046875 C 2.273438 -1.078125 2.332031 -1.128906 2.375 -1.203125 C 2.445312 -1.316406 2.484375 -1.546875 2.484375 -1.890625 L 2.484375 -2.125 L 1.890625 -2.125 C 1.722656 -2.125 1.609375 -2.085938 1.546875 -2.015625 C 1.492188 -1.953125 1.46875 -1.796875 1.46875 -1.546875 C 1.46875 -1.335938 1.492188 -1.195312 1.546875 -1.125 C 1.609375 -1.050781 1.738281 -1.015625 1.9375 -1.015625 Z M 1.9375 -1.015625 "/></g></g></g><g fill="#000000" fill-opacity="1"><g transform="translate(140.824237, 62.443745)"><g><path d="M 2.71875 -2.71875 C 2.71875 -3.132812 2.707031 -3.421875 2.6875 -3.578125 C 2.664062 -3.734375 2.625 -3.832031 2.5625 -3.875 C 2.507812 -3.914062 2.398438 -3.9375 2.234375 -3.9375 C 2.066406 -3.9375 1.945312 -3.90625 1.875 -3.84375 C 1.8125 -3.78125 1.769531 -3.65625 1.75 -3.46875 C 1.726562 -3.289062 1.71875 -2.988281 1.71875 -2.5625 L 1.71875 0 L 0.453125 0 L 0.453125 -5.015625 L 1.65625 -5.015625 L 1.6875 -4.40625 L 1.765625 -4.40625 C 1.847656 -4.65625 1.984375 -4.832031 2.171875 -4.9375 C 2.367188 -5.039062 2.601562 -5.09375 2.875 -5.09375 C 3.1875 -5.09375 3.421875 -5.03125 3.578125 -4.90625 C 3.742188 -4.78125 3.851562 -4.585938 3.90625 -4.328125 C 3.957031 -4.078125 3.984375 -3.734375 3.984375 -3.296875 L 3.984375 0 L 2.71875 0 Z M 2.71875 -2.71875 "/></g></g></g><g fill="#000000" fill-opacity="1"><g transform="translate(145.247455, 62.443745)"><g><path d="M 1.390625 0.078125 C 0.984375 0.078125 0.691406 -0.0390625 0.515625 -0.28125 C 0.335938 -0.53125 0.25 -0.914062 0.25 -1.4375 C 0.25 -1.832031 0.285156 -2.140625 0.359375 -2.359375 C 0.441406 -2.578125 0.578125 -2.734375 0.765625 -2.828125 C 0.953125 -2.929688 1.210938 -2.984375 1.546875 -2.984375 C 1.773438 -2.984375 2.085938 -2.972656 2.484375 -2.953125 L 2.484375 -3.171875 C 2.484375 -3.453125 2.460938 -3.648438 2.421875 -3.765625 C 2.378906 -3.878906 2.300781 -3.953125 2.1875 -3.984375 C 2.070312 -4.015625 1.875 -4.03125 1.59375 -4.03125 C 1.3125 -4.03125 0.941406 -4.003906 0.484375 -3.953125 L 0.484375 -4.9375 C 0.984375 -5.039062 1.476562 -5.09375 1.96875 -5.09375 C 2.46875 -5.09375 2.84375 -5.023438 3.09375 -4.890625 C 3.351562 -4.765625 3.523438 -4.5625 3.609375 -4.28125 C 3.703125 -4 3.75 -3.59375 3.75 -3.0625 L 3.75 0 L 2.546875 0 L 2.5 -0.59375 L 2.4375 -0.59375 C 2.351562 -0.34375 2.210938 -0.164062 2.015625 -0.0625 C 1.828125 0.03125 1.617188 0.078125 1.390625 0.078125 Z M 1.9375 -1.015625 C 2.050781 -1.015625 2.140625 -1.023438 2.203125 -1.046875 C 2.273438 -1.078125 2.332031 -1.128906 2.375 -1.203125 C 2.445312 -1.316406 2.484375 -1.546875 2.484375 -1.890625 L 2.484375 -2.125 L 1.890625 -2.125 C 1.722656 -2.125 1.609375 -2.085938 1.546875 -2.015625 C 1.492188 -1.953125 1.46875 -1.796875 1.46875 -1.546875 C 1.46875 -1.335938 1.492188 -1.195312 1.546875 -1.125 C 1.609375 -1.050781 1.738281 -1.015625 1.9375 -1.015625 Z M 1.9375 -1.015625 "/></g></g></g><g fill="#000000" fill-opacity="1"><g transform="translate(149.434771, 62.443745)"><g><path d="M 2.03125 2 C 1.800781 2 1.550781 1.988281 1.28125 1.96875 C 1.019531 1.945312 0.8125 1.921875 0.65625 1.890625 L 0.65625 0.90625 C 0.769531 0.90625 0.851562 0.910156 0.90625 0.921875 L 1.734375 0.9375 C 2.046875 0.9375 2.257812 0.910156 2.375 0.859375 C 2.5 0.804688 2.578125 0.703125 2.609375 0.546875 C 2.640625 0.398438 2.65625 0.132812 2.65625 -0.25 L 2.65625 -0.625 L 2.578125 -0.625 C 2.429688 -0.21875 2.097656 -0.015625 1.578125 -0.015625 C 1.253906 -0.015625 1 -0.09375 0.8125 -0.25 C 0.632812 -0.40625 0.507812 -0.660156 0.4375 -1.015625 C 0.363281 -1.367188 0.328125 -1.878906 0.328125 -2.546875 C 0.328125 -3.222656 0.363281 -3.742188 0.4375 -4.109375 C 0.519531 -4.472656 0.648438 -4.726562 0.828125 -4.875 C 1.003906 -5.019531 1.257812 -5.09375 1.59375 -5.09375 C 1.820312 -5.09375 2.03125 -5.039062 2.21875 -4.9375 C 2.40625 -4.832031 2.535156 -4.660156 2.609375 -4.421875 L 2.6875 -4.421875 L 2.734375 -5.015625 L 3.9375 -5.015625 L 3.9375 -0.59375 C 3.9375 0.0820312 3.898438 0.59375 3.828125 0.9375 C 3.753906 1.28125 3.582031 1.539062 3.3125 1.71875 C 3.039062 1.90625 2.613281 2 2.03125 2 Z M 2.125 -1.15625 C 2.269531 -1.15625 2.378906 -1.175781 2.453125 -1.21875 C 2.523438 -1.257812 2.578125 -1.347656 2.609375 -1.484375 C 2.640625 -1.640625 2.65625 -1.992188 2.65625 -2.546875 C 2.65625 -3.035156 2.640625 -3.363281 2.609375 -3.53125 C 2.585938 -3.695312 2.539062 -3.804688 2.46875 -3.859375 C 2.40625 -3.910156 2.289062 -3.9375 2.125 -3.9375 C 1.957031 -3.9375 1.835938 -3.910156 1.765625 -3.859375 C 1.703125 -3.816406 1.660156 -3.703125 1.640625 -3.515625 C 1.617188 -3.335938 1.609375 -3.015625 1.609375 -2.546875 C 1.609375 -2.078125 1.617188 -1.75 1.640625 -1.5625 C 1.660156 -1.382812 1.703125 -1.269531 1.765625 -1.21875 C 1.835938 -1.175781 1.957031 -1.15625 2.125 -1.15625 Z M 2.125 -1.15625 "/></g></g></g><g fill="#000000" fill-opacity="1"><g transform="translate(153.818675, 62.443745)"><g><path d="M 3.828125 -2.109375 L 1.609375 -2.109375 C 1.609375 -1.734375 1.625 -1.472656 1.65625 -1.328125 C 1.6875 -1.191406 1.757812 -1.097656 1.875 -1.046875 C 1.988281 -1.003906 2.203125 -0.984375 2.515625 -0.984375 C 2.765625 -0.984375 3.164062 -1.003906 3.71875 -1.046875 L 3.71875 -0.0625 C 3.539062 -0.03125 3.3125 0 3.03125 0.03125 C 2.75 0.0625 2.476562 0.078125 2.21875 0.078125 C 1.632812 0.078125 1.207031 -0.00390625 0.9375 -0.171875 C 0.675781 -0.347656 0.507812 -0.609375 0.4375 -0.953125 C 0.363281 -1.296875 0.328125 -1.8125 0.328125 -2.5 C 0.328125 -3.175781 0.363281 -3.6875 0.4375 -4.03125 C 0.507812 -4.375 0.671875 -4.632812 0.921875 -4.8125 C 1.179688 -5 1.585938 -5.09375 2.140625 -5.09375 C 2.679688 -5.09375 3.070312 -5.007812 3.3125 -4.84375 C 3.550781 -4.675781 3.695312 -4.425781 3.75 -4.09375 C 3.800781 -3.757812 3.828125 -3.226562 3.828125 -2.5 Z M 2.125 -4.046875 C 1.96875 -4.046875 1.851562 -4.019531 1.78125 -3.96875 C 1.71875 -3.925781 1.671875 -3.832031 1.640625 -3.6875 C 1.617188 -3.539062 1.609375 -3.300781 1.609375 -2.96875 L 2.640625 -2.96875 C 2.640625 -3.300781 2.625 -3.539062 2.59375 -3.6875 C 2.570312 -3.832031 2.53125 -3.925781 2.46875 -3.96875 C 2.40625 -4.019531 2.289062 -4.046875 2.125 -4.046875 Z M 2.125 -4.046875 "/></g></g></g><g fill="#000000" fill-opacity="1"><g transform="translate(157.996162, 62.443745)"><g><path d="M 4.859375 -2.71875 C 4.859375 -3.125 4.847656 -3.40625 4.828125 -3.5625 C 4.816406 -3.726562 4.78125 -3.832031 4.71875 -3.875 C 4.664062 -3.914062 4.5625 -3.9375 4.40625 -3.9375 C 4.25 -3.9375 4.140625 -3.90625 4.078125 -3.84375 C 4.015625 -3.78125 3.972656 -3.660156 3.953125 -3.484375 C 3.941406 -3.304688 3.9375 -3 3.9375 -2.5625 L 3.9375 0 L 2.65625 0 L 2.65625 -2.71875 C 2.65625 -3.125 2.644531 -3.40625 2.625 -3.5625 C 2.613281 -3.726562 2.578125 -3.832031 2.515625 -3.875 C 2.460938 -3.914062 2.359375 -3.9375 2.203125 -3.9375 C 2.046875 -3.9375 1.9375 -3.90625 1.875 -3.84375 C 1.8125 -3.78125 1.769531 -3.65625 1.75 -3.46875 C 1.726562 -3.289062 1.71875 -2.988281 1.71875 -2.5625 L 1.71875 0 L 0.453125 0 L 0.453125 -5.015625 L 1.65625 -5.015625 L 1.6875 -4.40625 L 1.765625 -4.40625 C 1.859375 -4.65625 1.992188 -4.832031 2.171875 -4.9375 C 2.347656 -5.039062 2.570312 -5.09375 2.84375 -5.09375 C 3.144531 -5.09375 3.375 -5.035156 3.53125 -4.921875 C 3.6875 -4.816406 3.796875 -4.644531 3.859375 -4.40625 L 3.9375 -4.40625 C 4.019531 -4.65625 4.15625 -4.832031 4.34375 -4.9375 C 4.53125 -5.039062 4.757812 -5.09375 5.03125 -5.09375 C 5.332031 -5.09375 5.5625 -5.03125 5.71875 -4.90625 C 5.875 -4.789062 5.976562 -4.609375 6.03125 -4.359375 C 6.09375 -4.109375 6.125 -3.769531 6.125 -3.34375 L 6.125 0 L 4.859375 0 Z M 4.859375 -2.71875 "/></g></g></g><g fill="#000000" fill-opacity="1"><g transform="translate(164.572018, 62.443745)"><g><path d="M 3.828125 -2.109375 L 1.609375 -2.109375 C 1.609375 -1.734375 1.625 -1.472656 1.65625 -1.328125 C 1.6875 -1.191406 1.757812 -1.097656 1.875 -1.046875 C 1.988281 -1.003906 2.203125 -0.984375 2.515625 -0.984375 C 2.765625 -0.984375 3.164062 -1.003906 3.71875 -1.046875 L 3.71875 -0.0625 C 3.539062 -0.03125 3.3125 0 3.03125 0.03125 C 2.75 0.0625 2.476562 0.078125 2.21875 0.078125 C 1.632812 0.078125 1.207031 -0.00390625 0.9375 -0.171875 C 0.675781 -0.347656 0.507812 -0.609375 0.4375 -0.953125 C 0.363281 -1.296875 0.328125 -1.8125 0.328125 -2.5 C 0.328125 -3.175781 0.363281 -3.6875 0.4375 -4.03125 C 0.507812 -4.375 0.671875 -4.632812 0.921875 -4.8125 C 1.179688 -5 1.585938 -5.09375 2.140625 -5.09375 C 2.679688 -5.09375 3.070312 -5.007812 3.3125 -4.84375 C 3.550781 -4.675781 3.695312 -4.425781 3.75 -4.09375 C 3.800781 -3.757812 3.828125 -3.226562 3.828125 -2.5 Z M 2.125 -4.046875 C 1.96875 -4.046875 1.851562 -4.019531 1.78125 -3.96875 C 1.71875 -3.925781 1.671875 -3.832031 1.640625 -3.6875 C 1.617188 -3.539062 1.609375 -3.300781 1.609375 -2.96875 L 2.640625 -2.96875 C 2.640625 -3.300781 2.625 -3.539062 2.59375 -3.6875 C 2.570312 -3.832031 2.53125 -3.925781 2.46875 -3.96875 C 2.40625 -4.019531 2.289062 -4.046875 2.125 -4.046875 Z M 2.125 -4.046875 "/></g></g></g><g fill="#000000" fill-opacity="1"><g transform="translate(168.749505, 62.443745)"><g><path d="M 2.71875 -2.71875 C 2.71875 -3.132812 2.707031 -3.421875 2.6875 -3.578125 C 2.664062 -3.734375 2.625 -3.832031 2.5625 -3.875 C 2.507812 -3.914062 2.398438 -3.9375 2.234375 -3.9375 C 2.066406 -3.9375 1.945312 -3.90625 1.875 -3.84375 C 1.8125 -3.78125 1.769531 -3.65625 1.75 -3.46875 C 1.726562 -3.289062 1.71875 -2.988281 1.71875 -2.5625 L 1.71875 0 L 0.453125 0 L 0.453125 -5.015625 L 1.65625 -5.015625 L 1.6875 -4.40625 L 1.765625 -4.40625 C 1.847656 -4.65625 1.984375 -4.832031 2.171875 -4.9375 C 2.367188 -5.039062 2.601562 -5.09375 2.875 -5.09375 C 3.1875 -5.09375 3.421875 -5.03125 3.578125 -4.90625 C 3.742188 -4.78125 3.851562 -4.585938 3.90625 -4.328125 C 3.957031 -4.078125 3.984375 -3.734375 3.984375 -3.296875 L 3.984375 0 L 2.71875 0 Z M 2.71875 -2.71875 "/></g></g></g><g fill="#000000" fill-opacity="1"><g transform="translate(173.172723, 62.443745)"><g><path d="M 0.765625 0 L 0.765625 -3.953125 L 0.140625 -3.953125 L 0.140625 -5.015625 L 0.765625 -5.015625 L 0.765625 -6.46875 L 2.03125 -6.46875 L 2.03125 -5.015625 L 2.828125 -5.015625 L 2.828125 -3.953125 L 2.03125 -3.953125 L 2.03125 0 Z M 0.765625 0 "/></g></g></g></svg>