<svg xmlns="http://www.w3.org/2000/svg" xmlns:xlink="http://www.w3.org/1999/xlink" width="250" zoomAndPan="magnify" viewBox="0 0 187.5 79.499998" height="106" preserveAspectRatio="xMidYMid meet" version="1.0"><defs><filter x="0%" y="0%" width="100%" height="100%" id="802714d95d"><feColorMatrix values="0 0 0 0 1 0 0 0 0 1 0 0 0 0 1 0 0 0 1 0" color-interpolation-filters="sRGB"/></filter><g/><clipPath id="ea6ce63be1"><path d="M 0.335938 0 L 186.664062 0 L 186.664062 79.003906 L 0.335938 79.003906 Z M 0.335938 0 " clip-rule="nonzero"/></clipPath><clipPath id="ba5379f9d1"><path d="M 19 9 L 134 9 L 134 44.851562 L 19 44.851562 Z M 19 9 " clip-rule="nonzero"/></clipPath><mask id="cf2919fc6a"><g filter="url(#802714d95d)"><rect x="-18.75" width="225" fill="#000000" y="-7.95" height="95.399997" fill-opacity="0.9843"/></g></mask><clipPath id="1291dc1272"><path d="M 0.0117188 0.03125 L 133.808594 0.03125 L 133.808594 22.449219 L 0.0117188 22.449219 Z M 0.0117188 0.03125 " clip-rule="nonzero"/></clipPath><clipPath id="16cbb70b19"><rect x="0" width="134" y="0" height="23"/></clipPath></defs><g clip-path="url(#ea6ce63be1)"><path fill="#ffffff" d="M 0.335938 0 L 187.164062 0 L 187.164062 85.941406 L 0.335938 85.941406 Z M 0.335938 0 " fill-opacity="1" fill-rule="nonzero"/><path fill="#ffffff" d="M 0.335938 0 L 187.164062 0 L 187.164062 79.214844 L 0.335938 79.214844 Z M 0.335938 0 " fill-opacity="1" fill-rule="nonzero"/><path fill="#000000" d="M 0.335938 0 L 187.164062 0 L 187.164062 79.214844 L 0.335938 79.214844 Z M 0.335938 0 " fill-opacity="1" fill-rule="nonzero"/></g><g clip-path="url(#ba5379f9d1)"><path fill="#51ade5" d="M 133.054688 43.351562 C 130.554688 43.351562 128.054688 43.351562 125.554688 43.351562 C 119.375 43.351562 113.195312 43.351562 107.015625 43.351562 C 99.140625 43.351562 91.265625 43.351562 83.390625 43.351562 C 75.804688 43.351562 68.214844 43.351562 60.628906 43.351562 C 55.3125 43.351562 49.996094 43.351562 44.679688 43.351562 C 43.660156 43.351562 42.640625 43.351562 41.621094 43.351562 C 41.621094 39.046875 41.621094 34.738281 41.621094 30.433594 C 41.621094 30.101562 40.945312 30.050781 40.75 30.050781 C 37.851562 30.035156 34.949219 30.019531 32.046875 30.003906 C 31.421875 30 29.972656 30.269531 29.972656 31.117188 C 29.96875 35.195312 29.964844 39.273438 29.960938 43.351562 C 28.59375 43.351562 27.230469 43.351562 25.867188 43.351562 C 25.867188 37.46875 25.867188 31.585938 25.867188 25.699219 C 25.867188 25.199219 25.867188 24.695312 25.867188 24.195312 C 25.867188 23.863281 25.191406 23.8125 25 23.8125 C 24.246094 23.8125 23.492188 23.8125 22.742188 23.8125 C 26.816406 19.84375 30.890625 15.875 34.96875 11.90625 C 35.050781 11.824219 35.136719 11.742188 35.222656 11.660156 C 38.042969 14.109375 40.867188 16.558594 43.6875 19.007812 C 44.332031 19.566406 46.535156 19.117188 46.535156 18.117188 C 46.535156 17.292969 46.535156 16.472656 46.535156 15.648438 C 46.855469 15.648438 47.171875 15.648438 47.488281 15.648438 C 47.488281 17.519531 47.488281 19.394531 47.488281 21.265625 C 47.488281 21.503906 47.585938 21.617188 47.75 21.78125 C 48.113281 22.160156 48.480469 22.539062 48.847656 22.921875 C 49.132812 23.214844 49.417969 23.511719 49.703125 23.804688 C 49.519531 23.804688 49.335938 23.804688 49.152344 23.804688 C 48.5 23.800781 47.628906 24.003906 47.195312 24.539062 C 46.761719 25.074219 47.539062 25.296875 47.945312 25.296875 C 49.199219 25.300781 50.457031 25.304688 51.710938 25.308594 C 52.066406 25.308594 54.414062 24.785156 53.691406 24.035156 C 53.019531 23.339844 52.351562 22.648438 51.679688 21.953125 C 51.300781 21.558594 50.921875 21.167969 50.539062 20.773438 C 50.507812 20.742188 50.476562 20.707031 50.445312 20.675781 C 50.449219 20.667969 50.433594 20.605469 50.433594 20.488281 C 50.433594 18.503906 50.433594 16.519531 50.433594 14.535156 C 50.433594 14.203125 49.757812 14.152344 49.566406 14.152344 C 48.265625 14.152344 46.96875 14.152344 45.667969 14.152344 C 45.042969 14.152344 43.59375 14.417969 43.59375 15.265625 C 43.59375 15.339844 43.59375 15.414062 43.59375 15.484375 C 41.332031 13.523438 39.070312 11.5625 36.808594 9.597656 C 36.097656 8.976562 34.652344 9.554688 34.082031 10.109375 C 29.746094 14.332031 25.410156 18.554688 21.074219 22.777344 C 20.46875 23.367188 19.863281 23.957031 19.257812 24.546875 C 18.738281 25.050781 19.671875 25.308594 20.003906 25.308594 C 20.976562 25.308594 21.949219 25.308594 22.925781 25.308594 C 22.925781 31.191406 22.925781 37.078125 22.925781 42.960938 C 22.925781 43.460938 22.925781 43.964844 22.925781 44.464844 C 22.925781 44.796875 23.597656 44.847656 23.792969 44.847656 C 26.136719 44.847656 28.480469 44.847656 30.824219 44.847656 C 31.453125 44.847656 32.898438 44.582031 32.902344 43.734375 C 32.90625 39.660156 32.910156 35.585938 32.914062 31.507812 C 34.832031 31.519531 36.753906 31.53125 38.675781 31.539062 C 38.675781 35.847656 38.675781 40.15625 38.675781 44.464844 C 38.675781 44.796875 39.351562 44.847656 39.542969 44.847656 C 42.046875 44.847656 44.546875 44.847656 47.046875 44.847656 C 53.226562 44.847656 59.40625 44.847656 65.585938 44.847656 C 73.460938 44.847656 81.335938 44.847656 89.210938 44.847656 C 96.796875 44.847656 104.386719 44.847656 111.972656 44.847656 C 117.289062 44.847656 122.605469 44.847656 127.921875 44.847656 C 129.230469 44.847656 130.539062 44.847656 131.847656 44.847656 C 132.5 44.847656 133.371094 44.648438 133.804688 44.113281 C 134.238281 43.578125 133.460938 43.351562 133.054688 43.351562 " fill-opacity="1" fill-rule="nonzero"/></g><g mask="url(#cf2919fc6a)"><g transform="matrix(1, 0, 0, 1, 33, 46)"><g clip-path="url(#16cbb70b19)"><g clip-path="url(#1291dc1272)"><path fill="#51ade5" d="M 133.167969 6.539062 C 132.050781 1.816406 126.816406 -1.140625 122.929688 1.671875 C 121.65625 2.597656 120.890625 4.382812 121.257812 6.042969 C 121.03125 2.851562 123 1.054688 125.8125 1.347656 C 130.511719 1.886719 133.503906 8.8125 130.554688 13.039062 C 126.828125 20.050781 109.632812 17.664062 102.636719 16.886719 C 90.183594 15.203125 78.949219 10.847656 66.523438 8.050781 C 52.558594 4.929688 37.941406 3.621094 23.910156 6.984375 C 17.621094 8.515625 0.625 13.878906 0.375 22.148438 C 0.945312 14.40625 14.546875 10.851562 20.214844 9.558594 C 35.320312 6.359375 50.828125 9.183594 65.664062 12.757812 C 74.332031 14.945312 83.800781 18.292969 93.097656 20.222656 C 102.585938 21.875 118.664062 23.492188 126.976562 17.777344 C 130.074219 15.316406 134.117188 11.15625 133.167969 6.539062 Z M 133.167969 6.539062 " fill-opacity="1" fill-rule="nonzero"/></g></g></g></g><g fill="#80cc28" fill-opacity="1"><g transform="translate(44.322913, 41.316709)"><g><path d="M 7.78125 -0.1875 C 7.476562 -0.09375 7.09375 -0.0078125 6.625 0.0625 C 6.15625 0.132812 5.707031 0.171875 5.28125 0.171875 C 3.957031 0.171875 2.984375 -0.046875 2.359375 -0.484375 C 1.742188 -0.921875 1.332031 -1.644531 1.125 -2.65625 C 0.925781 -3.675781 0.828125 -5.210938 0.828125 -7.265625 C 0.828125 -9.304688 0.929688 -10.835938 1.140625 -11.859375 C 1.347656 -12.878906 1.765625 -13.609375 2.390625 -14.046875 C 3.023438 -14.484375 3.988281 -14.703125 5.28125 -14.703125 C 5.75 -14.703125 6.207031 -14.671875 6.65625 -14.609375 C 7.113281 -14.546875 7.472656 -14.460938 7.734375 -14.359375 L 7.734375 -12 C 6.910156 -12.09375 6.289062 -12.140625 5.875 -12.140625 C 5.15625 -12.140625 4.65625 -12.046875 4.375 -11.859375 C 4.101562 -11.671875 3.925781 -11.265625 3.84375 -10.640625 C 3.769531 -10.023438 3.734375 -8.898438 3.734375 -7.265625 C 3.734375 -5.628906 3.769531 -4.5 3.84375 -3.875 C 3.925781 -3.257812 4.101562 -2.859375 4.375 -2.671875 C 4.65625 -2.484375 5.15625 -2.390625 5.875 -2.390625 C 6.519531 -2.390625 7.15625 -2.4375 7.78125 -2.53125 Z M 7.78125 -0.1875 "/></g></g></g><g fill="#80cc28" fill-opacity="1"><g transform="translate(53.109913, 41.316709)"><g><path d="M 7.453125 0 L 6.890625 -2.984375 L 3.640625 -2.984375 L 3.0625 0 L 0.171875 0 L 3.171875 -14.53125 L 7.421875 -14.53125 L 10.421875 0 Z M 5.328125 -11.78125 L 5.203125 -11.78125 L 4.0625 -5.5 L 6.4375 -5.5 Z M 5.328125 -11.78125 "/></g></g></g><g fill="#80cc28" fill-opacity="1"><g transform="translate(64.114736, 41.316709)"><g><path d="M 7 0 L 5.578125 -5.0625 L 4.015625 -5.0625 L 4.015625 0 L 1.09375 0 L 1.09375 -14.53125 L 6 -14.53125 C 7.039062 -14.53125 7.820312 -14.351562 8.34375 -14 C 8.875 -13.65625 9.234375 -13.148438 9.421875 -12.484375 C 9.609375 -11.816406 9.703125 -10.929688 9.703125 -9.828125 C 9.703125 -8.765625 9.601562 -7.890625 9.40625 -7.203125 C 9.21875 -6.515625 8.835938 -5.992188 8.265625 -5.640625 L 10.015625 0 Z M 5.296875 -7.578125 C 5.765625 -7.578125 6.097656 -7.628906 6.296875 -7.734375 C 6.492188 -7.847656 6.625 -8.046875 6.6875 -8.328125 C 6.75 -8.617188 6.78125 -9.109375 6.78125 -9.796875 C 6.78125 -10.472656 6.75 -10.953125 6.6875 -11.234375 C 6.625 -11.515625 6.492188 -11.707031 6.296875 -11.8125 C 6.097656 -11.925781 5.765625 -11.984375 5.296875 -11.984375 L 4.015625 -11.984375 L 4.015625 -7.578125 Z M 5.296875 -7.578125 "/></g></g></g><g fill="#80cc28" fill-opacity="1"><g transform="translate(74.971702, 41.316709)"><g><path d="M 7 0 L 5.578125 -5.0625 L 4.015625 -5.0625 L 4.015625 0 L 1.09375 0 L 1.09375 -14.53125 L 6 -14.53125 C 7.039062 -14.53125 7.820312 -14.351562 8.34375 -14 C 8.875 -13.65625 9.234375 -13.148438 9.421875 -12.484375 C 9.609375 -11.816406 9.703125 -10.929688 9.703125 -9.828125 C 9.703125 -8.765625 9.601562 -7.890625 9.40625 -7.203125 C 9.21875 -6.515625 8.835938 -5.992188 8.265625 -5.640625 L 10.015625 0 Z M 5.296875 -7.578125 C 5.765625 -7.578125 6.097656 -7.628906 6.296875 -7.734375 C 6.492188 -7.847656 6.625 -8.046875 6.6875 -8.328125 C 6.75 -8.617188 6.78125 -9.109375 6.78125 -9.796875 C 6.78125 -10.472656 6.75 -10.953125 6.6875 -11.234375 C 6.625 -11.515625 6.492188 -11.707031 6.296875 -11.8125 C 6.097656 -11.925781 5.765625 -11.984375 5.296875 -11.984375 L 4.015625 -11.984375 L 4.015625 -7.578125 Z M 5.296875 -7.578125 "/></g></g></g><g fill="#80cc28" fill-opacity="1"><g transform="translate(85.828668, 41.316709)"><g><path d="M 1.125 0 L 1.125 -14.53125 L 4.015625 -14.53125 L 4.015625 0 Z M 1.125 0 "/></g></g></g><g fill="#80cc28" fill-opacity="1"><g transform="translate(91.383998, 41.316709)"><g><path d="M 7.328125 0 L 3.953125 -7.96875 L 3.859375 -7.96875 L 3.859375 0 L 1.09375 0 L 1.09375 -14.53125 L 3.90625 -14.53125 L 7.0625 -7.1875 L 7.15625 -7.1875 L 7.15625 -14.53125 L 9.953125 -14.53125 L 9.953125 0 Z M 7.328125 0 "/></g></g></g><g fill="#80cc28" fill-opacity="1"><g transform="translate(102.853502, 41.316709)"><g><path d="M 5.296875 -5.953125 L 5.296875 -8.453125 L 9.296875 -8.453125 L 9.296875 -0.28125 C 8.804688 -0.144531 8.207031 -0.0351562 7.5 0.046875 C 6.789062 0.128906 6.132812 0.171875 5.53125 0.171875 C 4.195312 0.171875 3.203125 -0.0234375 2.546875 -0.421875 C 1.890625 -0.828125 1.4375 -1.546875 1.1875 -2.578125 C 0.945312 -3.617188 0.828125 -5.179688 0.828125 -7.265625 C 0.828125 -9.335938 0.957031 -10.890625 1.21875 -11.921875 C 1.476562 -12.960938 1.953125 -13.6875 2.640625 -14.09375 C 3.328125 -14.5 4.363281 -14.703125 5.75 -14.703125 C 6.3125 -14.703125 6.921875 -14.660156 7.578125 -14.578125 C 8.242188 -14.492188 8.8125 -14.394531 9.28125 -14.28125 L 9.28125 -11.890625 C 8.0625 -12.054688 7.179688 -12.140625 6.640625 -12.140625 C 5.679688 -12.140625 5.019531 -12.0625 4.65625 -11.90625 C 4.300781 -11.757812 4.054688 -11.363281 3.921875 -10.71875 C 3.785156 -10.082031 3.71875 -8.929688 3.71875 -7.265625 C 3.71875 -5.710938 3.757812 -4.609375 3.84375 -3.953125 C 3.925781 -3.304688 4.085938 -2.867188 4.328125 -2.640625 C 4.578125 -2.410156 5 -2.296875 5.59375 -2.296875 C 5.71875 -2.296875 6.054688 -2.316406 6.609375 -2.359375 L 6.609375 -5.953125 Z M 5.296875 -5.953125 "/></g></g></g><g fill="#80cc28" fill-opacity="1"><g transform="translate(110.237082, 56.8637)"><g><path d="M 5.8125 0 L 5.8125 -5.703125 L 5.75 -5.703125 L 4.640625 0 L 3.21875 0 L 2.125 -5.703125 L 2.03125 -5.703125 L 2.03125 0 L 0.578125 0 L 0.578125 -7.734375 L 2.921875 -7.734375 L 3.9375 -2.375 L 4.015625 -2.375 L 5.015625 -7.734375 L 7.3125 -7.734375 L 7.3125 0 Z M 5.8125 0 "/></g></g></g><g fill="#80cc28" fill-opacity="1"><g transform="translate(118.133824, 56.8637)"><g><path d="M 1.578125 0.09375 C 1.117188 0.09375 0.785156 -0.046875 0.578125 -0.328125 C 0.378906 -0.609375 0.28125 -1.050781 0.28125 -1.65625 C 0.28125 -2.09375 0.320312 -2.4375 0.40625 -2.6875 C 0.5 -2.9375 0.648438 -3.117188 0.859375 -3.234375 C 1.078125 -3.359375 1.378906 -3.421875 1.765625 -3.421875 C 2.035156 -3.421875 2.394531 -3.40625 2.84375 -3.375 L 2.84375 -3.625 C 2.84375 -3.9375 2.816406 -4.160156 2.765625 -4.296875 C 2.722656 -4.429688 2.632812 -4.515625 2.5 -4.546875 C 2.363281 -4.585938 2.132812 -4.609375 1.8125 -4.609375 C 1.5 -4.609375 1.082031 -4.582031 0.5625 -4.53125 L 0.5625 -5.65625 C 1.125 -5.757812 1.691406 -5.8125 2.265625 -5.8125 C 2.816406 -5.8125 3.238281 -5.738281 3.53125 -5.59375 C 3.832031 -5.445312 4.035156 -5.210938 4.140625 -4.890625 C 4.242188 -4.566406 4.296875 -4.101562 4.296875 -3.5 L 4.296875 0 L 2.90625 0 L 2.859375 -0.671875 L 2.78125 -0.671875 C 2.6875 -0.398438 2.53125 -0.203125 2.3125 -0.078125 C 2.09375 0.0351562 1.847656 0.09375 1.578125 0.09375 Z M 2.21875 -1.171875 C 2.34375 -1.171875 2.441406 -1.1875 2.515625 -1.21875 C 2.597656 -1.25 2.664062 -1.300781 2.71875 -1.375 C 2.800781 -1.507812 2.84375 -1.769531 2.84375 -2.15625 L 2.84375 -2.4375 L 2.171875 -2.4375 C 1.972656 -2.4375 1.84375 -2.394531 1.78125 -2.3125 C 1.71875 -2.226562 1.6875 -2.050781 1.6875 -1.78125 C 1.6875 -1.539062 1.71875 -1.378906 1.78125 -1.296875 C 1.84375 -1.210938 1.988281 -1.171875 2.21875 -1.171875 Z M 2.21875 -1.171875 "/></g></g></g><g fill="#80cc28" fill-opacity="1"><g transform="translate(122.919047, 56.8637)"><g><path d="M 3.109375 -3.09375 C 3.109375 -3.570312 3.097656 -3.898438 3.078125 -4.078125 C 3.054688 -4.265625 3.007812 -4.378906 2.9375 -4.421875 C 2.875 -4.472656 2.75 -4.5 2.5625 -4.5 C 2.363281 -4.5 2.222656 -4.460938 2.140625 -4.390625 C 2.066406 -4.316406 2.019531 -4.175781 2 -3.96875 C 1.976562 -3.757812 1.96875 -3.414062 1.96875 -2.9375 L 1.96875 0 L 0.515625 0 L 0.515625 -5.734375 L 1.890625 -5.734375 L 1.9375 -5.046875 L 2.015625 -5.046875 C 2.117188 -5.328125 2.273438 -5.523438 2.484375 -5.640625 C 2.703125 -5.753906 2.96875 -5.8125 3.28125 -5.8125 C 3.632812 -5.8125 3.90625 -5.738281 4.09375 -5.59375 C 4.28125 -5.457031 4.40625 -5.242188 4.46875 -4.953125 C 4.53125 -4.671875 4.5625 -4.273438 4.5625 -3.765625 L 4.5625 0 L 3.109375 0 Z M 3.109375 -3.09375 "/></g></g></g><g fill="#80cc28" fill-opacity="1"><g transform="translate(127.973858, 56.8637)"><g><path d="M 1.578125 0.09375 C 1.117188 0.09375 0.785156 -0.046875 0.578125 -0.328125 C 0.378906 -0.609375 0.28125 -1.050781 0.28125 -1.65625 C 0.28125 -2.09375 0.320312 -2.4375 0.40625 -2.6875 C 0.5 -2.9375 0.648438 -3.117188 0.859375 -3.234375 C 1.078125 -3.359375 1.378906 -3.421875 1.765625 -3.421875 C 2.035156 -3.421875 2.394531 -3.40625 2.84375 -3.375 L 2.84375 -3.625 C 2.84375 -3.9375 2.816406 -4.160156 2.765625 -4.296875 C 2.722656 -4.429688 2.632812 -4.515625 2.5 -4.546875 C 2.363281 -4.585938 2.132812 -4.609375 1.8125 -4.609375 C 1.5 -4.609375 1.082031 -4.582031 0.5625 -4.53125 L 0.5625 -5.65625 C 1.125 -5.757812 1.691406 -5.8125 2.265625 -5.8125 C 2.816406 -5.8125 3.238281 -5.738281 3.53125 -5.59375 C 3.832031 -5.445312 4.035156 -5.210938 4.140625 -4.890625 C 4.242188 -4.566406 4.296875 -4.101562 4.296875 -3.5 L 4.296875 0 L 2.90625 0 L 2.859375 -0.671875 L 2.78125 -0.671875 C 2.6875 -0.398438 2.53125 -0.203125 2.3125 -0.078125 C 2.09375 0.0351562 1.847656 0.09375 1.578125 0.09375 Z M 2.21875 -1.171875 C 2.34375 -1.171875 2.441406 -1.1875 2.515625 -1.21875 C 2.597656 -1.25 2.664062 -1.300781 2.71875 -1.375 C 2.800781 -1.507812 2.84375 -1.769531 2.84375 -2.15625 L 2.84375 -2.4375 L 2.171875 -2.4375 C 1.972656 -2.4375 1.84375 -2.394531 1.78125 -2.3125 C 1.71875 -2.226562 1.6875 -2.050781 1.6875 -1.78125 C 1.6875 -1.539062 1.71875 -1.378906 1.78125 -1.296875 C 1.84375 -1.210938 1.988281 -1.171875 2.21875 -1.171875 Z M 2.21875 -1.171875 "/></g></g></g><g fill="#80cc28" fill-opacity="1"><g transform="translate(132.759081, 56.8637)"><g><path d="M 2.328125 2.28125 C 2.054688 2.28125 1.769531 2.269531 1.46875 2.25 C 1.164062 2.226562 0.921875 2.195312 0.734375 2.15625 L 0.734375 1.046875 C 0.867188 1.046875 0.96875 1.050781 1.03125 1.0625 L 1.984375 1.0625 C 2.335938 1.0625 2.582031 1.03125 2.71875 0.96875 C 2.863281 0.914062 2.953125 0.800781 2.984375 0.625 C 3.023438 0.457031 3.046875 0.148438 3.046875 -0.296875 L 3.046875 -0.71875 L 2.953125 -0.71875 C 2.785156 -0.25 2.40625 -0.015625 1.8125 -0.015625 C 1.4375 -0.015625 1.144531 -0.101562 0.9375 -0.28125 C 0.726562 -0.457031 0.582031 -0.75 0.5 -1.15625 C 0.414062 -1.570312 0.375 -2.15625 0.375 -2.90625 C 0.375 -3.675781 0.421875 -4.269531 0.515625 -4.6875 C 0.609375 -5.101562 0.753906 -5.394531 0.953125 -5.5625 C 1.160156 -5.726562 1.445312 -5.8125 1.8125 -5.8125 C 2.082031 -5.8125 2.320312 -5.753906 2.53125 -5.640625 C 2.75 -5.523438 2.898438 -5.332031 2.984375 -5.0625 L 3.078125 -5.0625 L 3.125 -5.734375 L 4.5 -5.734375 L 4.5 -0.6875 C 4.5 0.09375 4.457031 0.675781 4.375 1.0625 C 4.289062 1.457031 4.09375 1.757812 3.78125 1.96875 C 3.476562 2.175781 2.992188 2.28125 2.328125 2.28125 Z M 2.4375 -1.3125 C 2.601562 -1.3125 2.722656 -1.335938 2.796875 -1.390625 C 2.878906 -1.441406 2.941406 -1.546875 2.984375 -1.703125 C 3.023438 -1.878906 3.046875 -2.28125 3.046875 -2.90625 C 3.046875 -3.46875 3.023438 -3.84375 2.984375 -4.03125 C 2.953125 -4.21875 2.894531 -4.34375 2.8125 -4.40625 C 2.738281 -4.46875 2.613281 -4.5 2.4375 -4.5 C 2.238281 -4.5 2.097656 -4.472656 2.015625 -4.421875 C 1.941406 -4.367188 1.890625 -4.238281 1.859375 -4.03125 C 1.835938 -3.820312 1.828125 -3.445312 1.828125 -2.90625 C 1.828125 -2.363281 1.835938 -1.988281 1.859375 -1.78125 C 1.890625 -1.582031 1.941406 -1.453125 2.015625 -1.390625 C 2.097656 -1.335938 2.238281 -1.3125 2.4375 -1.3125 Z M 2.4375 -1.3125 "/></g></g></g><g fill="#80cc28" fill-opacity="1"><g transform="translate(137.768965, 56.8637)"><g><path d="M 4.375 -2.421875 L 1.828125 -2.421875 C 1.828125 -1.992188 1.84375 -1.695312 1.875 -1.53125 C 1.914062 -1.363281 2.003906 -1.253906 2.140625 -1.203125 C 2.273438 -1.148438 2.519531 -1.125 2.875 -1.125 C 3.15625 -1.125 3.613281 -1.144531 4.25 -1.1875 L 4.25 -0.078125 C 4.039062 -0.0351562 3.773438 0 3.453125 0.03125 C 3.140625 0.0703125 2.832031 0.09375 2.53125 0.09375 C 1.875 0.09375 1.390625 -0.00390625 1.078125 -0.203125 C 0.773438 -0.398438 0.582031 -0.691406 0.5 -1.078125 C 0.414062 -1.472656 0.375 -2.066406 0.375 -2.859375 C 0.375 -3.628906 0.414062 -4.210938 0.5 -4.609375 C 0.582031 -5.003906 0.769531 -5.300781 1.0625 -5.5 C 1.351562 -5.707031 1.816406 -5.8125 2.453125 -5.8125 C 3.066406 -5.8125 3.507812 -5.71875 3.78125 -5.53125 C 4.050781 -5.34375 4.21875 -5.054688 4.28125 -4.671875 C 4.34375 -4.285156 4.375 -3.679688 4.375 -2.859375 Z M 2.4375 -4.625 C 2.25 -4.625 2.113281 -4.59375 2.03125 -4.53125 C 1.957031 -4.476562 1.90625 -4.367188 1.875 -4.203125 C 1.84375 -4.046875 1.828125 -3.773438 1.828125 -3.390625 L 3.015625 -3.390625 C 3.015625 -3.773438 3 -4.050781 2.96875 -4.21875 C 2.945312 -4.382812 2.894531 -4.492188 2.8125 -4.546875 C 2.738281 -4.597656 2.613281 -4.625 2.4375 -4.625 Z M 2.4375 -4.625 "/></g></g></g><g fill="#80cc28" fill-opacity="1"><g transform="translate(142.542956, 56.8637)"><g><path d="M 5.5625 -3.09375 C 5.5625 -3.570312 5.550781 -3.898438 5.53125 -4.078125 C 5.507812 -4.265625 5.460938 -4.378906 5.390625 -4.421875 C 5.328125 -4.472656 5.210938 -4.5 5.046875 -4.5 C 4.867188 -4.5 4.738281 -4.460938 4.65625 -4.390625 C 4.582031 -4.316406 4.535156 -4.179688 4.515625 -3.984375 C 4.503906 -3.785156 4.5 -3.4375 4.5 -2.9375 L 4.5 0 L 3.046875 0 L 3.046875 -3.09375 C 3.046875 -3.570312 3.035156 -3.898438 3.015625 -4.078125 C 2.992188 -4.265625 2.945312 -4.378906 2.875 -4.421875 C 2.8125 -4.472656 2.691406 -4.5 2.515625 -4.5 C 2.335938 -4.5 2.210938 -4.460938 2.140625 -4.390625 C 2.066406 -4.316406 2.019531 -4.175781 2 -3.96875 C 1.976562 -3.757812 1.96875 -3.414062 1.96875 -2.9375 L 1.96875 0 L 0.515625 0 L 0.515625 -5.734375 L 1.890625 -5.734375 L 1.9375 -5.046875 L 2.015625 -5.046875 C 2.117188 -5.316406 2.269531 -5.507812 2.46875 -5.625 C 2.675781 -5.75 2.941406 -5.8125 3.265625 -5.8125 C 3.597656 -5.8125 3.851562 -5.75 4.03125 -5.625 C 4.207031 -5.507812 4.332031 -5.316406 4.40625 -5.046875 L 4.5 -5.046875 C 4.601562 -5.316406 4.757812 -5.507812 4.96875 -5.625 C 5.175781 -5.75 5.4375 -5.8125 5.75 -5.8125 C 6.09375 -5.8125 6.351562 -5.742188 6.53125 -5.609375 C 6.71875 -5.472656 6.84375 -5.265625 6.90625 -4.984375 C 6.976562 -4.703125 7.015625 -4.316406 7.015625 -3.828125 L 7.015625 0 L 5.5625 0 Z M 5.5625 -3.09375 "/></g></g></g><g fill="#80cc28" fill-opacity="1"><g transform="translate(150.057781, 56.8637)"><g><path d="M 4.375 -2.421875 L 1.828125 -2.421875 C 1.828125 -1.992188 1.84375 -1.695312 1.875 -1.53125 C 1.914062 -1.363281 2.003906 -1.253906 2.140625 -1.203125 C 2.273438 -1.148438 2.519531 -1.125 2.875 -1.125 C 3.15625 -1.125 3.613281 -1.144531 4.25 -1.1875 L 4.25 -0.078125 C 4.039062 -0.0351562 3.773438 0 3.453125 0.03125 C 3.140625 0.0703125 2.832031 0.09375 2.53125 0.09375 C 1.875 0.09375 1.390625 -0.00390625 1.078125 -0.203125 C 0.773438 -0.398438 0.582031 -0.691406 0.5 -1.078125 C 0.414062 -1.472656 0.375 -2.066406 0.375 -2.859375 C 0.375 -3.628906 0.414062 -4.210938 0.5 -4.609375 C 0.582031 -5.003906 0.769531 -5.300781 1.0625 -5.5 C 1.351562 -5.707031 1.816406 -5.8125 2.453125 -5.8125 C 3.066406 -5.8125 3.507812 -5.71875 3.78125 -5.53125 C 4.050781 -5.34375 4.21875 -5.054688 4.28125 -4.671875 C 4.34375 -4.285156 4.375 -3.679688 4.375 -2.859375 Z M 2.4375 -4.625 C 2.25 -4.625 2.113281 -4.59375 2.03125 -4.53125 C 1.957031 -4.476562 1.90625 -4.367188 1.875 -4.203125 C 1.84375 -4.046875 1.828125 -3.773438 1.828125 -3.390625 L 3.015625 -3.390625 C 3.015625 -3.773438 3 -4.050781 2.96875 -4.21875 C 2.945312 -4.382812 2.894531 -4.492188 2.8125 -4.546875 C 2.738281 -4.597656 2.613281 -4.625 2.4375 -4.625 Z M 2.4375 -4.625 "/></g></g></g><g fill="#80cc28" fill-opacity="1"><g transform="translate(154.831773, 56.8637)"><g><path d="M 3.109375 -3.09375 C 3.109375 -3.570312 3.097656 -3.898438 3.078125 -4.078125 C 3.054688 -4.265625 3.007812 -4.378906 2.9375 -4.421875 C 2.875 -4.472656 2.75 -4.5 2.5625 -4.5 C 2.363281 -4.5 2.222656 -4.460938 2.140625 -4.390625 C 2.066406 -4.316406 2.019531 -4.175781 2 -3.96875 C 1.976562 -3.757812 1.96875 -3.414062 1.96875 -2.9375 L 1.96875 0 L 0.515625 0 L 0.515625 -5.734375 L 1.890625 -5.734375 L 1.9375 -5.046875 L 2.015625 -5.046875 C 2.117188 -5.328125 2.273438 -5.523438 2.484375 -5.640625 C 2.703125 -5.753906 2.96875 -5.8125 3.28125 -5.8125 C 3.632812 -5.8125 3.90625 -5.738281 4.09375 -5.59375 C 4.28125 -5.457031 4.40625 -5.242188 4.46875 -4.953125 C 4.53125 -4.671875 4.5625 -4.273438 4.5625 -3.765625 L 4.5625 0 L 3.109375 0 Z M 3.109375 -3.09375 "/></g></g></g><g fill="#80cc28" fill-opacity="1"><g transform="translate(159.886584, 56.8637)"><g><path d="M 0.875 0 L 0.875 -4.515625 L 0.171875 -4.515625 L 0.171875 -5.734375 L 0.875 -5.734375 L 0.875 -7.390625 L 2.328125 -7.390625 L 2.328125 -5.734375 L 3.234375 -5.734375 L 3.234375 -4.515625 L 2.328125 -4.515625 L 2.328125 0 Z M 0.875 0 "/></g></g></g></svg>